<svg xmlns="http://www.w3.org/2000/svg" width="384pt" height="384pt" viewBox="0 0 384 384" version="1.1" class="iconadda">
<g>
<g id="Info_free_interface_icon_M4O2bkY-0"><path style=" stroke:none;fill-rule:nonzero;fill:#000001;fill-opacity:1;" d="M 384 192 C 384 242.921875 363.773438 291.757812 327.765625 327.765625 C 291.757812 363.773438 242.921875 384 192 384 C 141.078125 384 92.242188 363.773438 56.234375 327.765625 C 20.226562 291.757812 0 242.921875 0 192 C 0 141.078125 20.226562 92.242188 56.234375 56.234375 C 92.242188 20.226562 141.078125 0 192 0 C 242.90625 0.0546875 291.707031 20.300781 327.703125 56.296875 C 363.699219 92.292969 383.945312 141.09375 384 192 Z M 224 192 C 224 183.511719 220.628906 175.375 214.628906 169.371094 C 208.625 163.371094 200.488281 160 192 160 L 160 160 L 160 192 L 192 192 L 192 304 L 224 304 Z M 192 80 C 185.636719 80 179.53125 82.527344 175.03125 87.03125 C 170.527344 91.53125 168 97.636719 168 104 C 168 110.363281 170.527344 116.46875 175.03125 120.96875 C 179.53125 125.472656 185.636719 128 192 128 C 198.363281 128 204.46875 125.472656 208.96875 120.96875 C 213.472656 116.46875 216 110.363281 216 104 C 216 97.636719 213.472656 91.53125 208.96875 87.03125 C 204.46875 82.527344 198.363281 80 192 80 Z M 192 80 " />
</g></g>
</svg>