<svg xmlns="http://www.w3.org/2000/svg" width="150pt" height="150pt" viewBox="0 0 150 150" version="1.1" class="iconadda">
<g>
<g id="Logo_Apple-0"><path style=" stroke:none;fill-rule:nonzero;fill:#000001;fill-opacity:1;" d="M 102.285156 40.097656 C 90.472656 40.097656 85.480469 45.734375 77.253906 45.734375 C 68.820312 45.734375 62.382812 40.136719 52.148438 40.136719 C 42.128906 40.136719 31.445312 46.253906 24.660156 56.675781 C 15.132812 71.371094 16.75 99.046875 32.179688 122.625 C 37.699219 131.066406 45.070312 140.53125 54.738281 140.632812 L 54.914062 140.632812 C 63.316406 140.632812 65.8125 135.132812 77.375 135.066406 L 77.550781 135.066406 C 88.941406 135.066406 91.226562 140.601562 99.59375 140.601562 L 99.769531 140.601562 C 109.4375 140.5 117.203125 130.011719 122.722656 121.601562 C 126.695312 115.554688 128.171875 112.519531 131.21875 105.679688 C 108.898438 97.207031 105.3125 65.5625 127.386719 53.429688 C 120.648438 44.992188 111.179688 40.105469 102.253906 40.105469 Z M 102.285156 40.097656 " />
</g><g id="Logo_Apple-1"><path style=" stroke:none;fill-rule:nonzero;fill:#000001;fill-opacity:1;" d="M 99.683594 9.375 C 92.652344 9.851562 84.449219 14.328125 79.644531 20.171875 C 75.285156 25.46875 71.699219 33.328125 73.105469 40.945312 L 73.667969 40.945312 C 81.15625 40.945312 88.820312 36.4375 93.296875 30.660156 C 97.609375 25.164062 100.878906 17.371094 99.683594 9.375 Z M 99.683594 9.375 " />
</g></g>
</svg>