<svg xmlns="http://www.w3.org/2000/svg" width="150pt" height="150pt" viewBox="0 0 150 150" version="1.1" class="iconadda">
<g>
<g id="Bank_Campus_Court-0"><path style=" stroke:none;fill-rule:nonzero;fill:#eef3f6;fill-opacity:1;" d="M 6.152344 47.167969 C 30.058594 34.226562 49.367188 25.492188 74.652344 12.011719 L 143.847656 47.167969 Z M 6.152344 47.167969 " />
</g><g id="Bank_Campus_Court-1"><path style=" stroke:none;fill-rule:nonzero;fill:#dedfd0;fill-opacity:1;" d="M 75.433594 15.039062 L 138.671875 47.167969 L 143.847656 47.167969 L 74.65625 12.011719 C 49.367188 25.492188 30.058594 34.226562 6.152344 47.167969 L 12.585938 47.167969 C 33.964844 35.828125 52.171875 27.441406 75.433594 15.039062 Z M 75.433594 15.039062 " />
</g><g id="Bank_Campus_Court-2"><path style=" stroke:none;fill-rule:nonzero;fill:#737271;fill-opacity:1;" d="M 132.128906 126.269531 L 132.128906 137.988281 L 17.871094 137.988281 L 17.871094 126.269531 Z M 132.128906 126.269531 " />
</g><g id="Bank_Campus_Court-3"><path style=" stroke:none;fill-rule:nonzero;fill:#5b5a57;fill-opacity:1;" d="M 20.410156 129.148438 L 132.128906 129.148438 L 132.128906 126.269531 L 17.871094 126.269531 L 17.871094 137.988281 L 20.410156 137.988281 Z M 20.410156 129.148438 " />
</g><g id="Bank_Campus_Court-4"><path style=" stroke:none;fill-rule:nonzero;fill:#eef3f6;fill-opacity:1;" d="M 123.175781 114.550781 L 123.175781 126.269531 L 26.824219 126.269531 L 26.824219 114.550781 Z M 123.175781 114.550781 " />
</g><g id="Bank_Campus_Court-5"><path style=" stroke:none;fill-rule:nonzero;fill:#dedfd0;fill-opacity:1;" d="M 29.363281 117.140625 L 123.175781 117.140625 L 123.175781 114.550781 L 26.824219 114.550781 L 26.824219 126.269531 L 29.363281 126.269531 Z M 29.363281 117.140625 " />
</g><g id="Bank_Campus_Court-6"><path style=" stroke:none;fill-rule:nonzero;fill:#737271;fill-opacity:1;" d="M 129.199219 47.167969 L 129.199219 58.886719 L 20.640625 58.886719 L 20.800781 47.167969 Z M 129.199219 47.167969 " />
</g><g id="Bank_Campus_Court-7"><path style=" stroke:none;fill-rule:nonzero;fill:#737271;fill-opacity:1;" d="M 23.4375 50.195312 L 129.199219 50.195312 L 129.199219 47.167969 L 20.800781 47.167969 L 20.640625 58.886719 L 23.316406 58.886719 Z M 23.4375 50.195312 " />
</g><g id="Bank_Campus_Court-8"><path style=" stroke:none;fill-rule:nonzero;fill:#f6d695;fill-opacity:1;" d="M 117.480469 75 L 117.480469 114.550781 L 102.832031 114.550781 L 102.832031 75 C 102.832031 70.953125 106.109375 67.675781 110.15625 67.675781 C 112.179688 67.675781 114.011719 68.496094 115.335938 69.820312 C 116.660156 71.144531 117.480469 72.976562 117.480469 75 Z M 117.480469 75 " />
</g><g id="Bank_Campus_Court-9"><path style=" stroke:none;fill-rule:nonzero;fill:#e2bf70;fill-opacity:1;" d="M 105.679688 77.246094 C 105.679688 73.199219 108.957031 69.921875 113.003906 69.921875 C 114.0625 69.921875 115.066406 70.148438 115.972656 70.550781 C 115.777344 70.292969 115.5625 70.046875 115.335938 69.820312 C 114.011719 68.496094 112.179688 67.675781 110.15625 67.675781 C 106.109375 67.675781 102.832031 70.953125 102.832031 75 L 102.832031 114.550781 L 105.679688 114.550781 Z M 105.679688 77.246094 " />
</g><g id="Bank_Campus_Court-10"><path style=" stroke:none;fill-rule:nonzero;fill:#f6d695;fill-opacity:1;" d="M 82.324219 75 L 82.324219 114.550781 L 67.675781 114.550781 L 67.675781 75 C 67.675781 70.953125 70.953125 67.675781 75 67.675781 C 77.023438 67.675781 78.855469 68.496094 80.179688 69.820312 C 81.503906 71.144531 82.324219 72.976562 82.324219 75 Z M 82.324219 75 " />
</g><g id="Bank_Campus_Court-11"><path style=" stroke:none;fill-rule:nonzero;fill:#e2bf70;fill-opacity:1;" d="M 70.117188 77.734375 C 70.117188 73.6875 73.394531 70.410156 77.441406 70.410156 C 78.945312 70.410156 80.34375 70.863281 81.507812 71.644531 C 81.160156 70.96875 80.710938 70.355469 80.179688 69.824219 C 78.855469 68.496094 77.023438 67.675781 75 67.675781 C 70.953125 67.675781 67.675781 70.953125 67.675781 75 L 67.675781 114.550781 L 70.117188 114.550781 Z M 70.117188 77.734375 " />
</g><g id="Bank_Campus_Court-12"><path style=" stroke:none;fill-rule:nonzero;fill:#f6d695;fill-opacity:1;" d="M 47.167969 75 L 47.167969 114.550781 L 32.519531 114.550781 L 32.519531 75 C 32.519531 70.953125 35.796875 67.675781 39.84375 67.675781 C 41.867188 67.675781 43.699219 68.496094 45.023438 69.820312 C 46.347656 71.144531 47.167969 72.976562 47.167969 75 Z M 47.167969 75 " />
</g><g id="Bank_Campus_Court-13"><path style=" stroke:none;fill-rule:nonzero;fill:#e2bf70;fill-opacity:1;" d="M 35.351562 77.929688 C 35.351562 73.882812 38.628906 70.605469 42.675781 70.605469 C 44 70.605469 45.246094 70.960938 46.320312 71.578125 C 45.976562 70.929688 45.539062 70.335938 45.023438 69.820312 C 43.699219 68.496094 41.867188 67.675781 39.84375 67.675781 C 35.796875 67.675781 32.519531 70.953125 32.519531 75 L 32.519531 114.550781 L 35.351562 114.550781 Z M 35.351562 77.929688 " />
</g><g id="Bank_Campus_Court-14"><path style=" stroke:none;fill-rule:nonzero;fill:#fbd785;fill-opacity:1;" d="M 75 23.730469 C 79.046875 23.730469 82.324219 27.007812 82.324219 31.054688 C 82.324219 35.101562 79.046875 38.378906 75 38.378906 C 70.953125 38.378906 67.675781 35.101562 67.675781 31.054688 C 67.675781 27.007812 70.953125 23.730469 75 23.730469 Z M 75 23.730469 " />
</g><g id="Bank_Campus_Court-15"><path style=" stroke:none;fill-rule:nonzero;fill:#eabf6a;fill-opacity:1;" d="M 69.824219 34.570312 C 69.824219 30.523438 73.101562 27.246094 77.148438 27.246094 C 79.042969 27.246094 80.769531 27.964844 82.070312 29.148438 C 81.230469 26.027344 78.386719 23.730469 75 23.730469 C 70.953125 23.730469 67.675781 27.007812 67.675781 31.054688 C 67.675781 33.203125 68.601562 35.136719 70.078125 36.476562 C 69.914062 35.871094 69.824219 35.230469 69.824219 34.570312 Z M 69.824219 34.570312 " />
</g><g id="Bank_Campus_Court-16"><path style=" stroke:none;fill-rule:nonzero;fill:#000001;fill-opacity:1;" d="M 129.199219 60.351562 L 20.640625 60.351562 C 20.25 60.351562 19.875 60.195312 19.597656 59.914062 C 19.324219 59.636719 19.171875 59.257812 19.175781 58.867188 L 19.335938 47.148438 C 19.347656 46.347656 20 45.703125 20.800781 45.703125 C 20.808594 45.703125 20.816406 45.703125 20.820312 45.703125 C 21.628906 45.714844 22.277344 46.378906 22.265625 47.1875 L 22.125 57.421875 L 127.734375 57.421875 L 127.734375 47.167969 C 127.734375 46.359375 128.390625 45.703125 129.199219 45.703125 C 130.007812 45.703125 130.664062 46.359375 130.664062 47.167969 L 130.664062 58.886719 C 130.664062 59.695312 130.007812 60.351562 129.199219 60.351562 Z M 129.199219 60.351562 " />
</g><g id="Bank_Campus_Court-17"><path style=" stroke:none;fill-rule:nonzero;fill:#000001;fill-opacity:1;" d="M 26.824219 127.734375 C 26.015625 127.734375 25.359375 127.078125 25.359375 126.269531 L 25.359375 114.550781 C 25.359375 113.742188 26.015625 113.085938 26.824219 113.085938 L 32.519531 113.085938 C 33.328125 113.085938 33.984375 113.742188 33.984375 114.550781 C 33.984375 115.359375 33.328125 116.015625 32.519531 116.015625 L 28.289062 116.015625 L 28.289062 126.269531 C 28.289062 127.078125 27.632812 127.734375 26.824219 127.734375 Z M 26.824219 127.734375 " />
</g><g id="Bank_Campus_Court-18"><path style=" stroke:none;fill-rule:nonzero;fill:#000001;fill-opacity:1;" d="M 67.675781 116.015625 L 47.167969 116.015625 C 46.359375 116.015625 45.703125 115.359375 45.703125 114.550781 C 45.703125 113.742188 46.359375 113.085938 47.167969 113.085938 L 67.675781 113.085938 C 68.484375 113.085938 69.140625 113.742188 69.140625 114.550781 C 69.140625 115.359375 68.484375 116.015625 67.675781 116.015625 Z M 67.675781 116.015625 " />
</g><g id="Bank_Campus_Court-19"><path style=" stroke:none;fill-rule:nonzero;fill:#000001;fill-opacity:1;" d="M 102.832031 116.015625 L 82.324219 116.015625 C 81.515625 116.015625 80.859375 115.359375 80.859375 114.550781 C 80.859375 113.742188 81.515625 113.085938 82.324219 113.085938 L 102.832031 113.085938 C 103.640625 113.085938 104.296875 113.742188 104.296875 114.550781 C 104.296875 115.359375 103.640625 116.015625 102.832031 116.015625 Z M 102.832031 116.015625 " />
</g><g id="Bank_Campus_Court-20"><path style=" stroke:none;fill-rule:nonzero;fill:#000001;fill-opacity:1;" d="M 123.175781 127.734375 C 122.367188 127.734375 121.710938 127.078125 121.710938 126.269531 L 121.710938 116.015625 L 117.480469 116.015625 C 116.671875 116.015625 116.015625 115.359375 116.015625 114.550781 C 116.015625 113.742188 116.671875 113.085938 117.480469 113.085938 L 123.175781 113.085938 C 123.984375 113.085938 124.640625 113.742188 124.640625 114.550781 L 124.640625 126.269531 C 124.640625 127.078125 123.984375 127.734375 123.175781 127.734375 Z M 123.175781 127.734375 " />
</g><g id="Bank_Campus_Court-21"><path style=" stroke:none;fill-rule:nonzero;fill:#000001;fill-opacity:1;" d="M 47.167969 116.015625 L 32.519531 116.015625 C 31.710938 116.015625 31.054688 115.359375 31.054688 114.550781 L 31.054688 75 C 31.054688 70.152344 34.996094 66.210938 39.84375 66.210938 C 42.191406 66.210938 44.398438 67.125 46.058594 68.785156 C 47.71875 70.445312 48.632812 72.652344 48.632812 75 L 48.632812 114.550781 C 48.632812 115.359375 47.976562 116.015625 47.167969 116.015625 Z M 33.984375 113.085938 L 45.703125 113.085938 L 45.703125 75 C 45.703125 73.433594 45.09375 71.960938 43.988281 70.855469 C 42.882812 69.75 41.410156 69.140625 39.84375 69.140625 C 36.613281 69.140625 33.984375 71.769531 33.984375 75 Z M 33.984375 113.085938 " />
</g><g id="Bank_Campus_Court-22"><path style=" stroke:none;fill-rule:nonzero;fill:#000001;fill-opacity:1;" d="M 143.847656 48.632812 L 6.152344 48.632812 C 5.480469 48.632812 4.898438 48.175781 4.730469 47.527344 C 4.566406 46.878906 4.863281 46.199219 5.453125 45.878906 C 17.917969 39.132812 28.929688 33.628906 40.585938 27.804688 C 51.042969 22.578125 61.859375 17.171875 73.964844 10.71875 C 74.386719 10.492188 74.890625 10.488281 75.316406 10.707031 L 144.511719 45.863281 C 145.117188 46.171875 145.429688 46.851562 145.273438 47.511719 C 145.113281 48.167969 144.523438 48.632812 143.847656 48.632812 Z M 11.984375 45.703125 L 137.730469 45.703125 L 74.671875 13.664062 C 62.804688 19.976562 52.179688 25.289062 41.898438 30.425781 C 31.890625 35.425781 22.359375 40.1875 11.984375 45.703125 Z M 11.984375 45.703125 " />
</g><g id="Bank_Campus_Court-23"><path style=" stroke:none;fill-rule:nonzero;fill:#000001;fill-opacity:1;" d="M 82.324219 116.015625 L 67.675781 116.015625 C 66.867188 116.015625 66.210938 115.359375 66.210938 114.550781 L 66.210938 75 C 66.210938 70.152344 70.152344 66.210938 75 66.210938 C 77.347656 66.210938 79.554688 67.125 81.214844 68.785156 C 82.875 70.445312 83.789062 72.652344 83.789062 75 L 83.789062 114.550781 C 83.789062 115.359375 83.132812 116.015625 82.324219 116.015625 Z M 69.140625 113.085938 L 80.859375 113.085938 L 80.859375 75 C 80.859375 73.433594 80.25 71.960938 79.144531 70.855469 C 78.039062 69.75 76.566406 69.140625 75 69.140625 C 71.769531 69.140625 69.140625 71.769531 69.140625 75 Z M 69.140625 113.085938 " />
</g><g id="Bank_Campus_Court-24"><path style=" stroke:none;fill-rule:nonzero;fill:#000001;fill-opacity:1;" d="M 117.480469 116.015625 L 102.832031 116.015625 C 102.023438 116.015625 101.367188 115.359375 101.367188 114.550781 L 101.367188 75 C 101.367188 70.152344 105.308594 66.210938 110.15625 66.210938 C 112.503906 66.210938 114.710938 67.125 116.371094 68.785156 C 118.03125 70.445312 118.945312 72.652344 118.945312 75 L 118.945312 114.550781 C 118.945312 115.359375 118.289062 116.015625 117.480469 116.015625 Z M 104.296875 113.085938 L 116.015625 113.085938 L 116.015625 75 C 116.015625 73.433594 115.40625 71.960938 114.300781 70.855469 C 113.195312 69.75 111.722656 69.140625 110.15625 69.140625 C 106.925781 69.140625 104.296875 71.769531 104.296875 75 Z M 104.296875 113.085938 " />
</g><g id="Bank_Campus_Court-25"><path style=" stroke:none;fill-rule:nonzero;fill:#000001;fill-opacity:1;" d="M 132.128906 139.453125 C 131.320312 139.453125 130.664062 138.796875 130.664062 137.988281 L 130.664062 127.734375 L 19.335938 127.734375 L 19.335938 137.988281 C 19.335938 138.796875 18.679688 139.453125 17.871094 139.453125 C 17.0625 139.453125 16.40625 138.796875 16.40625 137.988281 L 16.40625 126.269531 C 16.40625 125.460938 17.0625 124.804688 17.871094 124.804688 L 132.128906 124.804688 C 132.9375 124.804688 133.59375 125.460938 133.59375 126.269531 L 133.59375 137.988281 C 133.59375 138.796875 132.9375 139.453125 132.128906 139.453125 Z M 132.128906 139.453125 " />
</g><g id="Bank_Campus_Court-26"><path style=" stroke:none;fill-rule:nonzero;fill:#000001;fill-opacity:1;" d="M 75 39.84375 C 70.152344 39.84375 66.210938 35.902344 66.210938 31.054688 C 66.210938 26.207031 70.152344 22.265625 75 22.265625 C 79.847656 22.265625 83.789062 26.207031 83.789062 31.054688 C 83.789062 35.902344 79.847656 39.84375 75 39.84375 Z M 75 25.195312 C 71.769531 25.195312 69.140625 27.824219 69.140625 31.054688 C 69.140625 34.285156 71.769531 36.914062 75 36.914062 C 78.230469 36.914062 80.859375 34.285156 80.859375 31.054688 C 80.859375 27.824219 78.230469 25.195312 75 25.195312 Z M 75 25.195312 " />
</g><g id="Bank_Campus_Court-27"><path style=" stroke:none;fill-rule:nonzero;fill:#000001;fill-opacity:1;" d="M 42.773438 40.234375 L 22.265625 40.234375 C 21.457031 40.234375 20.800781 39.578125 20.800781 38.769531 C 20.800781 37.960938 21.457031 37.304688 22.265625 37.304688 L 42.773438 37.304688 C 43.582031 37.304688 44.238281 37.960938 44.238281 38.769531 C 44.238281 39.578125 43.582031 40.234375 42.773438 40.234375 Z M 42.773438 40.234375 " />
</g><g id="Bank_Campus_Court-28"><path style=" stroke:none;fill-rule:nonzero;fill:#000001;fill-opacity:1;" d="M 143.847656 139.453125 L 6.152344 139.453125 C 5.34375 139.453125 4.6875 138.796875 4.6875 137.988281 C 4.6875 137.179688 5.34375 136.523438 6.152344 136.523438 L 143.847656 136.523438 C 144.65625 136.523438 145.3125 137.179688 145.3125 137.988281 C 145.3125 138.796875 144.65625 139.453125 143.847656 139.453125 Z M 143.847656 139.453125 " />
</g></g>
</svg>