<svg width="22" height="24" viewBox="0 0 22 24" fill="none" xmlns="http://www.w3.org/2000/svg">
<path d="M14.6385 8.59248L15.1058 6.19765C15.6556 3.37939 13.5528 0.75 10.7491 0.75C7.94543 0.75 5.84263 3.3794 6.39248 6.19765L6.85971 8.59248C7.23052 10.493 8.8584 11.8611 10.7491 11.8611C12.6399 11.8611 14.2677 10.493 14.6385 8.59248Z" stroke="#164B5B" stroke-width="1.5" stroke-linecap="round"/>
<path d="M9.27832 11.3057C9.27832 10.8915 8.94253 10.5557 8.52832 10.5557C8.11411 10.5557 7.77832 10.8915 7.77832 11.3057H8.52832H9.27832ZM13.7228 11.3057C13.7228 10.8915 13.387 10.5557 12.9728 10.5557C12.5586 10.5557 12.2228 10.8915 12.2228 11.3057H12.9728H13.7228ZM10.8508 16.3037L10.8218 15.5543H10.8218L10.8508 16.3037ZM10.6503 16.3037L10.6793 15.5543H10.6793L10.6503 16.3037ZM12.0417 15.3258L12.5822 15.8457L12.0417 15.3258ZM8.52832 11.3057H7.77832V12.7299H8.52832H9.27832V11.3057H8.52832ZM12.9728 11.3057H12.2228V12.7299H12.9728H13.7228V11.3057H12.9728ZM10.8508 16.3037L10.8218 15.5543C10.7981 15.5552 10.7744 15.5556 10.7505 15.5556V16.3056V17.0556C10.7938 17.0556 10.8369 17.0548 10.8799 17.0531L10.8508 16.3037ZM10.6503 16.3037L10.6212 17.0531C10.6642 17.0548 10.7073 17.0556 10.7505 17.0556V16.3056V15.5556C10.7267 15.5556 10.703 15.5552 10.6793 15.5543L10.6503 16.3037ZM12.9728 12.7299H12.2228C12.2228 13.2999 12.2169 13.5906 12.1374 13.8586C12.0667 14.0967 11.9174 14.3732 11.5012 14.8058L12.0417 15.3258L12.5822 15.8457C13.0971 15.3105 13.4133 14.8316 13.5754 14.2852C13.7287 13.7685 13.7228 13.2453 13.7228 12.7299H12.9728ZM10.8508 16.3037L10.8799 17.0531C10.9229 17.0515 11.0622 17.0494 11.2258 16.9924C11.3786 16.9392 11.5071 16.8559 11.6189 16.7699C11.8304 16.6075 12.1225 16.3236 12.5822 15.8457L12.0417 15.3258L11.5012 14.8058C11.0299 15.2958 10.8131 15.4975 10.7052 15.5804C10.6573 15.6171 10.6735 15.5964 10.7323 15.5759C10.8018 15.5517 10.8654 15.5526 10.8218 15.5543L10.8508 16.3037ZM8.52832 12.7299H7.77832C7.77832 13.2453 7.77241 13.7685 7.92568 14.2852C8.08779 14.8316 8.404 15.3105 8.91888 15.8457L9.45939 15.3258L9.9999 14.8058C9.58371 14.3732 9.43439 14.0967 9.36373 13.8586C9.28423 13.5906 9.27832 13.2999 9.27832 12.7299H8.52832ZM10.6503 16.3037L10.6793 15.5543C10.6357 15.5526 10.6993 15.5517 10.7688 15.5759C10.8276 15.5964 10.8438 15.6171 10.7959 15.5804C10.688 15.4975 10.4712 15.2958 9.9999 14.8058L9.45939 15.3258L8.91888 15.8457C9.37863 16.3236 9.67071 16.6075 9.88214 16.7699C9.99398 16.8559 10.1225 16.9392 10.2753 16.9924C10.4389 17.0494 10.5782 17.0515 10.6212 17.0531L10.6503 16.3037Z" fill="#164B5B"/>
<path d="M8.52778 14.0835C4.92374 15.1129 3.12172 15.6276 2.02343 16.9544C1.917 17.083 1.81643 17.2163 1.72201 17.3539C0.879499 18.5818 0.765441 20.1487 0.75 22.9724M12.9722 14.0835C16.5763 15.1129 18.3783 15.6276 19.4766 16.9544C19.583 17.083 19.6836 17.2163 19.778 17.3539C20.6205 18.5818 20.7346 20.1487 20.75 22.9724" stroke="#164B5B" stroke-width="1.5" stroke-linecap="round"/>
<path d="M10.75 16.3057V20.7501" stroke="#164B5B" stroke-width="1.5" stroke-linecap="round"/>
<path d="M6.30469 5.19434H15.1936" stroke="#164B5B" stroke-width="1.5" stroke-linecap="round" stroke-linejoin="round"/>
</svg>
