<svg xmlns="http://www.w3.org/2000/svg" width="150pt" height="150pt" viewBox="0 0 150 150" version="1.1" class="iconadda">
<g>
<g id="Reciept_LEQYuW2-0"><path style=" stroke:none;fill-rule:nonzero;fill:#202021;fill-opacity:1;" d="M 25 39.0625 C 25 31.296875 31.296875 25 39.0625 25 L 92.1875 25 C 99.953125 25 106.25 31.296875 106.25 39.0625 L 106.25 87.5 L 128.125 87.5 L 128.125 107.8125 C 128.125 119.03125 119.03125 128.125 107.8125 128.125 L 45.3125 128.125 C 34.09375 128.125 25 119.03125 25 107.8125 Z M 106.25 96.875 L 106.25 118.75 L 107.8125 118.75 C 113.851562 118.75 118.75 113.851562 118.75 107.8125 L 118.75 96.875 Z M 96.875 118.75 L 96.875 39.0625 C 96.875 36.472656 94.777344 34.375 92.1875 34.375 L 39.0625 34.375 C 36.472656 34.375 34.375 36.472656 34.375 39.0625 L 34.375 107.8125 C 34.375 113.851562 39.273438 118.75 45.3125 118.75 Z M 96.875 118.75 " />
</g><g id="Reciept_LEQYuW2-1"><path style=" stroke:none;fill-rule:nonzero;fill:#202021;fill-opacity:1;" d="M 43.75 54.6875 C 43.75 52.097656 45.847656 50 48.4375 50 L 82.8125 50 C 85.402344 50 87.5 52.097656 87.5 54.6875 C 87.5 57.277344 85.402344 59.375 82.8125 59.375 L 48.4375 59.375 C 45.847656 59.375 43.75 57.277344 43.75 54.6875 Z M 43.75 76.5625 C 43.75 73.972656 45.847656 71.875 48.4375 71.875 L 82.8125 71.875 C 85.402344 71.875 87.5 73.972656 87.5 76.5625 C 87.5 79.152344 85.402344 81.25 82.8125 81.25 L 48.4375 81.25 C 45.847656 81.25 43.75 79.152344 43.75 76.5625 Z M 43.75 98.4375 C 43.75 95.847656 45.847656 93.75 48.4375 93.75 L 64.0625 93.75 C 66.652344 93.75 68.75 95.847656 68.75 98.4375 C 68.75 101.027344 66.652344 103.125 64.0625 103.125 L 48.4375 103.125 C 45.847656 103.125 43.75 101.027344 43.75 98.4375 Z M 43.75 98.4375 " />
</g></g>
</svg>