<svg width="21" height="24" viewBox="0 0 21 24" fill="none" xmlns="http://www.w3.org/2000/svg">
<path d="M7 5.75C6.64125 5.75 6.34375 5.41 6.34375 5V2C6.34375 1.59 6.64125 1.25 7 1.25C7.35875 1.25 7.65625 1.59 7.65625 2V5C7.65625 5.41 7.35875 5.75 7 5.75Z" fill="#676977"/>
<path d="M14 5.75C13.6413 5.75 13.3438 5.41 13.3438 5V2C13.3438 1.59 13.6413 1.25 14 1.25C14.3587 1.25 14.6562 1.59 14.6562 2V5C14.6562 5.41 14.3587 5.75 14 5.75Z" fill="#676977"/>
<path d="M17.9375 9.83984H3.0625C2.70375 9.83984 2.40625 9.49984 2.40625 9.08984C2.40625 8.67984 2.70375 8.33984 3.0625 8.33984H17.9375C18.2963 8.33984 18.5938 8.67984 18.5938 9.08984C18.5938 9.49984 18.2963 9.83984 17.9375 9.83984Z" fill="#676977"/>
<path d="M14 22.75H7C3.80625 22.75 1.96875 20.65 1.96875 17V8.5C1.96875 4.85 3.80625 2.75 7 2.75H14C17.1938 2.75 19.0312 4.85 19.0312 8.5V17C19.0312 20.65 17.1938 22.75 14 22.75ZM7 4.25C4.4975 4.25 3.28125 5.64 3.28125 8.5V17C3.28125 19.86 4.4975 21.25 7 21.25H14C16.5025 21.25 17.7188 19.86 17.7188 17V8.5C17.7188 5.64 16.5025 4.25 14 4.25H7Z" fill="#676977"/>
<path d="M7.4375 14.5C7.32375 14.5 7.21 14.47 7.105 14.42C7 14.37 6.90376 14.3 6.81626 14.21C6.73751 14.11 6.67624 14 6.63249 13.88C6.58874 13.76 6.5625 13.63 6.5625 13.5C6.5625 13.24 6.65876 12.98 6.81626 12.79C6.90376 12.7 7 12.63 7.105 12.58C7.2625 12.5 7.43751 12.48 7.61251 12.52C7.66501 12.53 7.7175 12.55 7.77 12.58C7.8225 12.6 7.875 12.63 7.9275 12.67C7.97125 12.71 8.01499 12.75 8.05874 12.79C8.09374 12.84 8.13749 12.89 8.16374 12.94C8.19874 13 8.22501 13.06 8.24251 13.12C8.26876 13.18 8.28626 13.24 8.29501 13.3C8.30376 13.37 8.3125 13.43 8.3125 13.5C8.3125 13.76 8.21624 14.02 8.05874 14.21C7.89249 14.39 7.665 14.5 7.4375 14.5Z" fill="#676977"/>
<path d="M10.5 14.4999C10.2725 14.4999 10.045 14.3899 9.87876 14.2099C9.84376 14.1599 9.80876 14.1099 9.77376 14.0599C9.73876 13.9999 9.71249 13.9399 9.69499 13.8799C9.66874 13.8199 9.65124 13.7599 9.64249 13.6999C9.63374 13.6299 9.625 13.5699 9.625 13.4999C9.625 13.3699 9.65124 13.2399 9.69499 13.1199C9.73874 12.9999 9.80001 12.8899 9.87876 12.7899C10.1238 12.5099 10.5175 12.4199 10.8325 12.5799C10.9463 12.6299 11.0337 12.6999 11.1212 12.7899C11.2787 12.9799 11.375 13.2399 11.375 13.4999C11.375 13.5699 11.3663 13.6299 11.3575 13.6999C11.3488 13.7599 11.3313 13.8199 11.305 13.8799C11.2875 13.9399 11.2612 13.9999 11.2262 14.0599C11.1912 14.1099 11.1562 14.1599 11.1212 14.2099C11.0337 14.2999 10.9463 14.3699 10.8325 14.4199C10.7275 14.4699 10.6137 14.4999 10.5 14.4999Z" fill="#676977"/>
<path d="M7.4375 17.9999C7.32375 17.9999 7.21 17.9699 7.105 17.9199C7 17.8699 6.90376 17.7999 6.81626 17.7099C6.73751 17.6099 6.67624 17.5099 6.63249 17.3799C6.58874 17.2599 6.5625 17.1299 6.5625 16.9999C6.5625 16.7399 6.65876 16.4799 6.81626 16.2899C6.90376 16.1999 7 16.1299 7.105 16.0799C7.42875 15.9199 7.81374 16.0099 8.05874 16.2899C8.09374 16.3399 8.13749 16.3899 8.16374 16.4399C8.19874 16.4999 8.22501 16.5599 8.24251 16.6199C8.26876 16.6799 8.28626 16.7399 8.29501 16.8099C8.30376 16.8699 8.3125 16.9399 8.3125 16.9999C8.3125 17.2599 8.21624 17.5199 8.05874 17.7099C7.89249 17.8899 7.665 17.9999 7.4375 17.9999Z" fill="#676977"/>
</svg>
