<svg xmlns="http://www.w3.org/2000/svg" width="384pt" height="384pt" viewBox="0 0 384 384" version="1.1" class="iconadda">
<g>
<g id="Shopping_Cart_free_icon_9_R2YMyzV-0"><path style=" stroke:none;fill-rule:nonzero;fill:#000001;fill-opacity:1;" d="M 308.964844 274 C 282.613281 274 260.546875 292.628906 255.207031 317.410156 L 221.554688 317.410156 C 215.363281 288.675781 187.082031 269.113281 157.078125 275.0625 L 113.203125 70.261719 C 108.105469 46.503906 86.78125 29.257812 62.480469 29.257812 L 26.636719 29.253906 C 20.238281 29.253906 15.042969 34.449219 15.042969 40.851562 C 15.042969 47.257812 20.238281 52.441406 26.636719 52.441406 L 62.480469 52.441406 C 75.910156 52.441406 87.703125 61.980469 90.527344 75.121094 L 135.402344 284.59375 C 121.714844 294.609375 112.804688 310.777344 112.804688 329.007812 C 112.804688 359.328125 137.476562 384 167.796875 384 C 194.144531 384 216.214844 365.371094 221.554688 340.597656 L 255.199219 340.597656 C 260.539062 365.371094 282.609375 384 308.960938 384 C 339.28125 384 363.957031 359.328125 363.957031 329.007812 C 363.957031 298.671875 339.28125 274.003906 308.960938 274.003906 Z M 167.34375 347.359375 C 157.199219 347.359375 148.984375 339.144531 148.984375 329.003906 C 148.984375 318.863281 157.199219 310.640625 167.34375 310.640625 C 177.484375 310.640625 185.707031 318.863281 185.707031 329.003906 C 185.707031 339.144531 177.480469 347.359375 167.34375 347.359375 Z M 308.960938 347.359375 C 298.820312 347.359375 290.597656 339.144531 290.597656 329.003906 C 290.597656 318.863281 298.820312 310.640625 308.960938 310.640625 C 319.101562 310.640625 327.316406 318.863281 327.316406 329.003906 C 327.316406 339.144531 319.101562 347.359375 308.960938 347.359375 Z M 308.960938 347.359375 " />
</g><g id="Shopping_Cart_free_icon_9_R2YMyzV-1"><path style=" stroke:none;fill-rule:nonzero;fill:#000001;fill-opacity:1;" d="M 99.855469 312.425781 L 54.132812 312.425781 C 47.730469 312.425781 42.539062 307.234375 42.539062 300.835938 C 42.539062 294.429688 47.730469 289.238281 54.132812 289.238281 L 99.855469 289.238281 C 106.253906 289.238281 111.449219 294.429688 111.449219 300.835938 C 111.449219 307.234375 106.261719 312.425781 99.855469 312.425781 Z M 84.875 364.0625 L 11.957031 364.0625 C 5.554688 364.0625 0.359375 358.871094 0.359375 352.464844 C 0.359375 346.058594 5.550781 340.871094 11.953125 340.871094 L 84.875 340.871094 C 91.277344 340.871094 96.46875 346.058594 96.46875 352.464844 C 96.46875 358.867188 91.277344 364.058594 84.875 364.058594 Z M 234.574219 196.519531 L 241.398438 256.601562 L 289.714844 256.601562 L 296.542969 196.519531 Z M 322.515625 173.332031 L 368.3125 173.332031 L 378.285156 126.785156 C 379.832031 119.566406 374.332031 112.761719 366.949219 112.761719 L 329.402344 112.761719 Z M 231.9375 173.332031 L 299.183594 173.332031 L 306.070312 112.761719 L 225.050781 112.761719 Z M 257.375 43.871094 C 263.777344 43.871094 268.96875 49.0625 268.96875 55.464844 L 268.96875 89.570312 L 350.3125 89.570312 L 350.3125 11.59375 C 350.3125 5.191406 345.121094 0 338.71875 0 L 198.847656 0 C 192.445312 0 187.253906 5.191406 187.253906 11.59375 L 187.253906 43.871094 Z M 319.886719 196.519531 L 313.058594 256.601562 L 341.105469 256.601562 C 346.570312 256.601562 351.296875 252.785156 352.433594 247.433594 L 363.34375 196.519531 Z M 201.710938 112.761719 L 146.011719 112.761719 L 158.992188 173.332031 L 208.597656 173.332031 Z M 211.234375 196.519531 L 163.960938 196.519531 L 176.832031 256.601562 L 218.058594 256.601562 Z M 211.234375 196.519531 " />
</g><g id="Shopping_Cart_free_icon_9_R2YMyzV-2"><path style=" stroke:none;fill-rule:nonzero;fill:#000001;fill-opacity:1;" d="M 245.78125 67.058594 L 157.84375 67.058594 L 157.84375 89.570312 L 245.785156 89.570312 Z M 245.78125 67.058594 " />
</g></g>
</svg>