<svg xmlns="http://www.w3.org/2000/svg" width="150pt" height="150pt" viewBox="0 0 150 150" version="1.1" class="iconadda">
<g>
<g id="Chevron_Left_0Gice7l-0"><path style=" stroke:none;fill-rule:nonzero;fill:#000001;fill-opacity:1;" d="M 95.90625 127.828125 C 96.972656 128.894531 98.355469 129.523438 99.984375 129.523438 C 103.25 129.523438 105.699219 127.074219 105.699219 123.808594 C 105.699219 122.242188 105.070312 120.796875 104.066406 119.730469 L 58.363281 75.03125 L 104.066406 30.332031 C 105.070312 29.265625 105.699219 27.757812 105.699219 26.25 C 105.699219 22.988281 103.25 20.476562 99.984375 20.476562 C 98.355469 20.476562 96.972656 21.105469 95.90625 22.171875 L 46.183594 70.824219 C 44.992188 71.828125 44.300781 73.398438 44.300781 75.03125 C 44.300781 76.601562 44.992188 78.042969 46.183594 79.238281 Z M 95.90625 127.828125 " />
</g></g>
</svg>