<svg xmlns="http://www.w3.org/2000/svg" width="384pt" height="384pt" viewBox="0 0 384 384" version="1.1" class="iconadda">
<g>
<g id="Coins_free_icon_A9Ai3tK-0"><path style=" stroke:none;fill-rule:nonzero;fill:#fed946;fill-opacity:1;" d="M 123.21875 27.59375 L 130.773438 72.457031 L 123.21875 117.320312 L 0 109.773438 L 0 27.59375 Z M 123.21875 27.59375 " />
</g><g id="Coins_free_icon_A9Ai3tK-1"><path style=" stroke:none;fill-rule:nonzero;fill:#fec24d;fill-opacity:1;" d="M 246.4375 27.59375 L 246.4375 109.769531 L 123.21875 117.324219 L 123.21875 27.59375 Z M 246.4375 27.59375 " />
</g><g id="Coins_free_icon_A9Ai3tK-2"><path style=" stroke:none;fill-rule:nonzero;fill:#fec24d;fill-opacity:1;" d="M 123.21875 109.773438 L 130.773438 154.582031 L 123.21875 199.390625 L 0 191.945312 L 0 109.773438 Z M 123.21875 109.773438 " />
</g><g id="Coins_free_icon_A9Ai3tK-3"><path style=" stroke:none;fill-rule:nonzero;fill:#fe9934;fill-opacity:1;" d="M 246.4375 109.773438 L 246.4375 191.949219 L 125.117188 199.503906 L 123.222656 199.390625 L 123.21875 109.773438 Z M 246.4375 109.773438 " />
</g><g id="Coins_free_icon_A9Ai3tK-4"><path style=" stroke:none;fill-rule:nonzero;fill:#fed946;fill-opacity:1;" d="M 123.21875 191.945312 L 130.773438 236.8125 L 123.21875 281.679688 L 0 274.128906 L 0 191.945312 Z M 123.21875 191.945312 " />
</g><g id="Coins_free_icon_A9Ai3tK-5"><path style=" stroke:none;fill-rule:nonzero;fill:#fec24d;fill-opacity:1;" d="M 246.4375 191.945312 L 246.4375 274.128906 L 123.21875 281.683594 L 123.21875 191.945312 Z M 246.4375 191.945312 " />
</g><g id="Coins_free_icon_A9Ai3tK-6"><path style=" stroke:none;fill-rule:nonzero;fill:#fec24d;fill-opacity:1;" d="M 123.21875 274.128906 L 130.773438 315.21875 L 123.21875 356.308594 L 0 356.304688 L 0 274.128906 Z M 123.21875 274.128906 " />
</g><g id="Coins_free_icon_A9Ai3tK-7"><path style=" stroke:none;fill-rule:nonzero;fill:#fe9934;fill-opacity:1;" d="M 123.21875 274.128906 L 246.4375 274.128906 L 246.4375 356.304688 L 123.21875 356.304688 Z M 123.21875 274.128906 " />
</g><g id="Coins_free_icon_A9Ai3tK-8"><path style=" stroke:none;fill-rule:nonzero;fill:#fec24d;fill-opacity:1;" d="M 253.613281 106.960938 L 268.722656 226.523438 L 253.613281 345.074219 C 187.859375 345.074219 134.558594 291.769531 134.558594 226.019531 C 134.558594 160.265625 187.859375 106.960938 253.613281 106.960938 Z M 253.613281 106.960938 " />
</g><g id="Coins_free_icon_A9Ai3tK-9"><path style=" stroke:none;fill-rule:nonzero;fill:#fe9934;fill-opacity:1;" d="M 372.667969 226.015625 C 372.667969 291.769531 319.363281 345.070312 253.613281 345.070312 L 253.613281 106.960938 C 319.367188 106.960938 372.667969 160.265625 372.667969 226.015625 Z M 372.667969 226.015625 " />
</g><g id="Coins_free_icon_A9Ai3tK-10"><path style=" stroke:none;fill-rule:nonzero;fill:#fed946;fill-opacity:1;" d="M 253.613281 118.292969 L 261.167969 106.960938 L 253.613281 95.628906 C 181.71875 95.628906 123.226562 154.121094 123.226562 226.015625 C 123.226562 297.917969 181.71875 356.402344 253.613281 356.402344 L 261.167969 345.070312 L 253.613281 333.738281 C 194.214844 333.738281 145.890625 285.414062 145.890625 226.015625 C 145.890625 166.617188 194.214844 118.292969 253.613281 118.292969 Z M 253.613281 118.292969 " />
</g><g id="Coins_free_icon_A9Ai3tK-11"><path style=" stroke:none;fill-rule:nonzero;fill:#fec24d;fill-opacity:1;" d="M 384 226.015625 C 384 297.917969 325.507812 356.402344 253.613281 356.402344 L 253.613281 333.738281 C 313.011719 333.738281 361.335938 285.414062 361.335938 226.015625 C 361.335938 166.617188 313.011719 118.292969 253.613281 118.292969 L 253.613281 95.628906 C 325.507812 95.628906 384 154.121094 384 226.015625 Z M 384 226.015625 " />
</g><g id="Coins_free_icon_A9Ai3tK-12"><path style=" stroke:none;fill-rule:nonzero;fill:#fed946;fill-opacity:1;" d="M 253.613281 144.0625 L 261.167969 226.523438 L 253.613281 308.984375 C 208.144531 308.984375 171.152344 271.992188 171.152344 226.523438 C 171.152344 181.054688 208.144531 144.0625 253.613281 144.0625 Z M 253.613281 144.0625 " />
</g><g id="Coins_free_icon_A9Ai3tK-13"><path style=" stroke:none;fill-rule:nonzero;fill:#fec24d;fill-opacity:1;" d="M 336.074219 226.523438 C 336.074219 271.992188 299.082031 308.984375 253.613281 308.984375 L 253.613281 144.058594 C 299.082031 144.058594 336.074219 181.050781 336.074219 226.519531 Z M 336.074219 226.523438 " />
</g><g id="Coins_free_icon_A9Ai3tK-14"><path style=" stroke:none;fill-rule:nonzero;fill:#fec24d;fill-opacity:1;" d="M 253.613281 198.820312 L 261.167969 226.015625 L 253.613281 254.222656 L 242.28125 254.222656 L 242.28125 198.820312 Z M 253.613281 198.820312 " />
</g><g id="Coins_free_icon_A9Ai3tK-15"><path style=" stroke:none;fill-rule:nonzero;fill:#fe9934;fill-opacity:1;" d="M 255.5 198.820312 L 266.832031 198.820312 L 266.832031 254.222656 L 255.5 254.222656 Z M 255.5 198.820312 " />
</g></g>
</svg>