<svg xmlns="http://www.w3.org/2000/svg" width="24pt" height="24pt" viewBox="0 0 24 24" version="1.1" class="iconadda"><rect width="24" height="24" rx="4.8" ry="4.8" fill="#ffec1c" shape="rounded" transform="matrix(1, 0, 0, 1, 0, 0)"></rect>
<g id="animate_0" transform="rotate(0,12,12) translate(1.0799999999999996,1.0799999999999996) scale(0.91,0.91)">
<g id="animate_1" style="transform-origin: 12px 11.4492px;"><path style="stroke: none; fill-rule: nonzero; fill-opacity: 1;" d="M 4.222656 9.75 L 3.457031 10.792969 L 7.632812 10.792969 C 7.84375 10.792969 7.839844 10.875 7.734375 11.015625 C 7.628906 11.15625 7.453125 11.40625 7.351562 11.546875 C 7.300781 11.621094 7.195312 11.753906 7.523438 11.753906 L 9.234375 11.753906 C 9.234375 11.753906 9.507812 11.378906 9.738281 11.0625 C 10.054688 10.636719 9.765625 9.75 8.644531 9.75 Z M 11.425781 9.75 L 9.953125 11.753906 L 15.339844 11.753906 L 16.808594 9.75 L 14.609375 9.75 L 13.765625 10.898438 L 12.78125 10.898438 L 13.628906 9.75 Z M 17.53125 9.75 L 16.058594 11.753906 L 18.390625 11.753906 L 19.863281 9.75 Z M 4.683594 11.054688 L 3.140625 13.148438 L 6.894531 13.148438 C 8.136719 13.148438 8.824219 12.304688 9.039062 12.011719 L 6.480469 12.011719 C 6.152344 12.011719 6.253906 11.875 6.308594 11.804688 C 6.414062 11.664062 6.59375 11.414062 6.699219 11.277344 C 6.804688 11.136719 6.804688 11.054688 6.59375 11.054688 L 4.679688 11.054688 Z M 0 12.011719 L 0 12.25 L 3.398438 12.25 L 3.574219 12.011719 Z M 9.761719 12.011719 L 8.925781 13.144531 L 11.128906 13.144531 L 11.964844 12.011719 Z M 12.949219 12.011719 C 12.945312 12.011719 12.113281 13.144531 12.113281 13.144531 L 14.316406 13.144531 L 15.152344 12.011719 Z M 15.863281 12.011719 C 15.863281 12.011719 15.703125 12.230469 15.625 12.335938 C 15.347656 12.710938 15.589844 13.144531 16.492188 13.144531 L 20.03125 13.144531 L 20.867188 12.011719 Z M 21.273438 12.011719 L 21.097656 12.25 L 24 12.253906 L 24 12.015625 L 21.273438 12.015625 Z M 0 12.457031 L 0 12.695312 L 3.066406 12.695312 L 3.242188 12.457031 Z M 20.945312 12.457031 L 20.765625 12.695312 L 24 12.695312 L 24 12.457031 Z M 0 12.902344 L 0 13.140625 L 2.742188 13.140625 L 2.921875 12.902344 Z M 20.613281 12.90625 L 20.4375 13.144531 L 24 13.148438 L 24 12.910156 L 20.613281 12.910156 Z M 20.613281 12.90625 " id="animate_2" data-original="#000001" fill="#ff3406" class=""></path>
</g></g>
</svg>