<svg width="29" height="29" viewBox="0 0 29 29" fill="none" xmlns="http://www.w3.org/2000/svg">
<path d="M17.9528 26.1766H10.2822C4.50574 26.1766 2.03516 23.706 2.03516 17.9295V17.7766C2.03516 12.553 4.09398 10.0354 8.70574 9.60009C9.17633 9.56479 9.62339 9.91773 9.67045 10.4001C9.71751 10.8824 9.36457 11.3177 8.87045 11.3648C5.17633 11.706 3.79986 13.4471 3.79986 17.7883V17.9413C3.79986 22.7295 5.49398 24.4236 10.2822 24.4236H17.9528C22.741 24.4236 24.4352 22.7295 24.4352 17.9413V17.7883C24.4352 13.4236 23.0352 11.6824 19.2705 11.3648C18.7881 11.3177 18.4234 10.8942 18.4704 10.4119C18.5175 9.9295 18.9293 9.56479 19.4234 9.61185C24.1057 10.0119 26.1999 12.5413 26.1999 17.8001V17.953C26.1999 23.706 23.7293 26.1766 17.9528 26.1766Z" fill="black"/>
<path d="M14.1177 18.3883C13.6354 18.3883 13.2354 17.9883 13.2354 17.506V2.35306C13.2354 1.8707 13.6354 1.4707 14.1177 1.4707C14.6001 1.4707 15.0001 1.8707 15.0001 2.35306V17.506C15.0001 18.0001 14.6001 18.3883 14.1177 18.3883Z" fill="black"/>
<path d="M14.1175 19.7068C13.8939 19.7068 13.6704 19.6245 13.4939 19.448L9.55276 15.5068C9.21158 15.1657 9.21158 14.601 9.55276 14.2598C9.89393 13.9186 10.4586 13.9186 10.7998 14.2598L14.1175 17.5774L17.4351 14.2598C17.7763 13.9186 18.341 13.9186 18.6822 14.2598C19.0233 14.601 19.0233 15.1657 18.6822 15.5068L14.741 19.448C14.5645 19.6245 14.341 19.7068 14.1175 19.7068Z" fill="black"/>
</svg>
