<svg xmlns="http://www.w3.org/2000/svg" width="150pt" height="150pt" viewBox="0 0 150 150" version="1.1" class="iconadda">
<g id="animate_0" transform="rotate(0,75,75) translate(0,0) scale(1.0,1.0)">
<g id="animate_1" style="transform-origin: 75px 75px;"><path style="stroke: none; fill-rule: nonzero; fill-opacity: 1;" d="M 135 18 L 126 18 L 126 12 C 126 10.410156 125.367188 8.882812 124.242188 7.757812 C 123.117188 6.632812 121.589844 6 120 6 L 114 6 C 110.6875 6 108 8.6875 108 12 L 108 18 L 84 18 L 84 12 C 84 10.410156 83.367188 8.882812 82.242188 7.757812 C 81.117188 6.632812 79.589844 6 78 6 L 72 6 C 68.6875 6 66 8.6875 66 12 L 66 18 L 42 18 L 42 12 C 42 10.410156 41.367188 8.882812 40.242188 7.757812 C 39.117188 6.632812 37.589844 6 36 6 L 30 6 C 26.6875 6 24 8.6875 24 12 L 24 18 L 15 18 C 10.03125 18 6 22.03125 6 27 L 6 135 C 6 139.96875 10.03125 144 15 144 L 111 144 C 119.746094 143.984375 128.132812 140.503906 134.316406 134.316406 C 140.503906 128.132812 143.984375 119.746094 144 111 C 144 111 144 110.519531 144 110.21875 C 144 109.917969 144 110.21875 144 110.21875 L 144 27 C 144 22.03125 139.96875 18 135 18 Z M 114 12 L 120 12 L 120 30 L 114 30 Z M 72 12 L 78 12 L 78 20.640625 C 78 20.640625 78 20.640625 78 21 C 78 21.359375 78 21 78 21.421875 L 78 30 L 72 30 Z M 30 12 L 36 12 L 36 30 L 30 30 Z M 15 24 L 24 24 L 24 30 C 24 33.3125 26.6875 36 30 36 L 36 36 C 37.589844 36 39.117188 35.367188 40.242188 34.242188 C 41.367188 33.117188 42 31.589844 42 30 L 42 24 L 66 24 L 66 30 C 66 33.3125 68.6875 36 72 36 L 78 36 C 79.589844 36 81.117188 35.367188 82.242188 34.242188 C 83.367188 33.117188 84 31.589844 84 30 L 84 24 L 108 24 L 108 30 C 108 33.3125 110.6875 36 114 36 L 120 36 C 121.589844 36 123.117188 35.367188 124.242188 34.242188 C 125.367188 33.117188 126 31.589844 126 30 L 126 24 L 135 24 C 135.796875 24 136.558594 24.316406 137.121094 24.878906 C 137.683594 25.441406 138 26.203125 138 27 L 138 48 L 12 48 L 12 27 C 12 25.34375 13.34375 24 15 24 Z M 111 138 C 103.839844 138 96.972656 135.15625 91.90625 130.09375 C 86.84375 125.027344 84 118.160156 84 111 C 84 103.839844 86.84375 96.972656 91.90625 91.90625 C 96.972656 86.84375 103.839844 84 111 84 C 118.160156 84 125.027344 86.84375 130.09375 91.90625 C 135.15625 96.972656 138 103.839844 138 111 C 137.984375 118.15625 135.132812 125.015625 130.074219 130.074219 C 125.015625 135.132812 118.15625 137.984375 111 138 Z M 111 78 C 101.570312 77.964844 92.574219 81.976562 86.296875 89.015625 C 80.019531 96.054688 77.0625 105.449219 78.171875 114.816406 C 79.28125 124.179688 84.351562 132.621094 92.101562 138 L 15 138 C 13.34375 138 12 136.65625 12 135 L 12 54 L 138 54 L 138 92.101562 C 131.84375 83.269531 121.761719 78.007812 111 78 Z M 111 78 " id="animate_2" data-original="#FE7801" fill="#000000"></path>
</g><g id="animate_3" style="transform-origin: 117.006px 108px;"><path style="stroke: none; fill-rule: nonzero; fill-opacity: 1;" d="M 124.320312 114.300781 L 114 109.140625 L 114 99 C 114 97.34375 112.65625 96 111 96 C 109.34375 96 108 97.34375 108 99 L 108 111 C 108.011719 112.144531 108.660156 113.183594 109.679688 113.699219 L 121.679688 119.699219 C 122.09375 119.890625 122.542969 119.992188 123 120 C 124.402344 120.003906 125.617188 119.042969 125.933594 117.675781 C 126.25 116.3125 125.582031 114.910156 124.320312 114.300781 Z M 124.320312 114.300781 " id="animate_4" data-original="#FE7801" fill="#000000"></path>
</g></g>
</svg>