<svg xmlns="http://www.w3.org/2000/svg" width="384pt" height="384pt" viewBox="0 0 384 384" version="1.1" class="iconadda">
<g>
<g id="Email_free_icon_qBrqm1P-0"><path style=" stroke:none;fill-rule:nonzero;fill:#000001;fill-opacity:1;" d="M 327.75 0 L 56.25 0 C 25.234375 0 0 25.234375 0 56.25 L 0 263.90625 C 0 294.921875 25.234375 320.15625 56.25 320.15625 L 327.75 320.15625 C 358.765625 320.15625 384 294.921875 384 263.90625 L 384 56.25 C 384 25.234375 358.765625 0 327.75 0 Z M 327.75 297.65625 L 56.25 297.65625 C 37.640625 297.65625 22.5 282.515625 22.5 263.90625 L 22.5 58.773438 L 185.957031 162.867188 C 187.804688 164.042969 189.902344 164.628906 192 164.628906 C 194.101562 164.628906 196.203125 164.042969 198.042969 162.867188 L 361.5 58.773438 L 361.5 263.90625 C 361.5 282.515625 346.359375 297.65625 327.75 297.65625 Z M 355.320312 36.816406 C 354.066406 37.101562 352.875 37.597656 351.792969 38.285156 L 192 140.042969 L 32.207031 38.285156 C 31.125 37.597656 29.933594 37.101562 28.679688 36.816406 C 34.796875 28.167969 44.871094 22.5 56.25 22.5 L 327.75 22.5 C 339.128906 22.5 349.203125 28.167969 355.320312 36.816406 Z M 355.320312 36.816406 " />
</g></g>
</svg>