<svg xmlns="http://www.w3.org/2000/svg" width="384pt" height="384pt" viewBox="0 0 384 384" version="1.1" class="iconadda">
<g id="animate_0" transform="rotate(0,192,192) translate(0,0) scale(1.0,1.0)">
<g id="animate_1" style="transform-origin: 228.604px 69.2793px;"><path style="stroke: none; fill-rule: nonzero; fill-opacity: 1;" d="M 228.601562 138.558594 C 225.777344 138.5625 223.054688 137.5 220.980469 135.582031 L 175.191406 93.394531 L 175.191406 93.398438 C 171.78125 90.257812 170.648438 85.347656 172.335938 81.03125 C 174.019531 76.714844 178.179688 73.875 182.8125 73.875 L 187.351562 73.875 L 187.355469 11.25 C 187.355469 5.039062 192.390625 0 198.605469 0 L 258.605469 0 C 264.816406 0 269.855469 5.035156 269.855469 11.25 L 269.855469 73.875 L 274.398438 73.875 L 274.394531 73.875 C 279.027344 73.875 283.1875 76.714844 284.871094 81.03125 C 286.558594 85.347656 285.425781 90.257812 282.015625 93.394531 L 236.226562 135.582031 C 234.148438 137.5 231.429688 138.5625 228.601562 138.558594 Z M 228.601562 138.558594 " id="animate_2" data-original="#00EDD1" fill="#edd100" class=""></path>
</g><g id="animate_3" style="transform-origin: 204.403px 223.405px;"><path style="stroke: none; fill-rule: nonzero; fill-opacity: 1;" d="M 157.988281 291.210938 C 159.671875 290.527344 266.34375 276.710938 266.34375 276.710938 C 287.765625 273.910156 307.34375 263.503906 321.464844 247.414062 C 335.585938 231.324219 343.363281 210.5625 343.363281 188.957031 L 343.363281 178.265625 C 343.363281 172.679688 339.265625 167.941406 333.738281 167.136719 L 99.695312 132.984375 L 83.292969 121.109375 C 78.261719 117.464844 71.226562 118.589844 67.582031 123.625 C 63.9375 128.65625 65.0625 135.691406 70.097656 139.335938 L 86.128906 150.941406 L 111.902344 214.386719 C 111.910156 214.410156 111.921875 214.433594 111.929688 214.460938 L 138.023438 278.699219 L 138.023438 278.695312 C 136.351562 280.6875 134.941406 282.890625 133.828125 285.246094 C 129.414062 294.59375 130.03125 304.972656 135.527344 313.730469 C 141.15625 322.699219 150.484375 327.839844 161.125 327.839844 L 319.730469 327.839844 C 325.941406 327.839844 330.980469 322.804688 330.980469 316.589844 C 330.980469 310.378906 325.945312 305.339844 319.730469 305.339844 L 161.128906 305.339844 C 158.277344 305.339844 156.078125 304.136719 154.589844 301.769531 C 153.175781 299.519531 153.042969 297.257812 154.175781 294.855469 C 155.035156 293.03125 156.304688 291.894531 157.988281 291.210938 Z M 245.683594 177.023438 L 250.152344 202.617188 L 193.664062 201.046875 L 184.097656 168.035156 L 245.679688 177.019531 Z M 254.101562 225.257812 L 259.285156 254.945312 L 211.109375 261.25 L 200.246094 223.753906 L 254.105469 225.261719 Z M 188.535156 264.199219 L 158.039062 268.1875 L 139.292969 222.042969 L 176.621094 223.085938 L 188.53125 264.195312 Z M 281.183594 249.574219 L 277.050781 225.898438 L 309.164062 226.796875 C 302.261719 236.753906 292.644531 244.691406 281.183594 249.578125 Z M 320.859375 188.957031 C 320.859375 194.328125 320.234375 199.542969 319.058594 204.535156 L 273.097656 203.257812 L 269.113281 180.445312 L 320.855469 187.996094 L 320.855469 188.960938 Z M 159.636719 164.464844 L 170.046875 200.386719 L 130.046875 199.273438 L 113.152344 157.679688 L 159.640625 164.464844 Z M 159.636719 164.464844 " id="animate_4" data-original="#202CBB" fill="#928df7" class=""></path>
</g><g id="animate_5" style="transform-origin: 62.6699px 119.061px;"><path style="stroke: none; fill-rule: nonzero; fill-opacity: 1;" d="M 84.703125 119.058594 C 84.703125 131.230469 74.839844 141.09375 62.667969 141.09375 C 50.5 141.09375 40.636719 131.230469 40.636719 119.058594 C 40.636719 106.890625 50.5 97.027344 62.667969 97.027344 C 74.839844 97.027344 84.703125 106.890625 84.703125 119.058594 " id="animate_6" data-original="#F90054" fill="#7a73ff" class=""></path>
</g><g id="animate_7" style="transform-origin: 173.85px 360.744px;"><path style="stroke: none; fill-rule: nonzero; fill-opacity: 1;" d="M 197.105469 360.742188 C 197.105469 373.585938 186.691406 384 173.847656 384 C 161.003906 384 150.59375 373.585938 150.59375 360.742188 C 150.59375 347.898438 161.003906 337.488281 173.847656 337.488281 C 186.691406 337.488281 197.105469 347.898438 197.105469 360.742188 " id="animate_8" data-original="#202CBB" fill="#928df7" class=""></path>
</g><g id="animate_9" style="transform-origin: 285.643px 360.744px;"><path style="stroke: none; fill-rule: nonzero; fill-opacity: 1;" d="M 308.898438 360.742188 C 308.898438 373.585938 298.488281 384 285.644531 384 C 272.800781 384 262.386719 373.585938 262.386719 360.742188 C 262.386719 347.898438 272.800781 337.488281 285.644531 337.488281 C 298.488281 337.488281 308.898438 347.898438 308.898438 360.742188 " id="animate_10" data-original="#00205B" fill="#7a73ff" class=""></path>
</g><g id="animate_11" style="transform-origin: 257.123px 69.2793px;"><path style="stroke: none; fill-rule: nonzero; fill-opacity: 1;" d="M 284.871094 81.03125 C 283.1875 76.714844 279.027344 73.875 274.394531 73.875 L 269.851562 73.875 L 269.851562 11.25 C 269.851562 5.039062 264.816406 0 258.601562 0 L 228.601562 0 L 228.601562 138.558594 C 231.425781 138.5625 234.148438 137.5 236.226562 135.582031 L 282.015625 93.394531 L 282.015625 93.398438 C 285.425781 90.257812 286.558594 85.347656 284.871094 81.03125 Z M 284.871094 81.03125 " id="animate_12" data-original="#00CCB3" fill="#ffdd00a8" class=""></path>
</g><g id="animate_13" style="transform-origin: 285.982px 239.814px;"><path style="stroke: none; fill-rule: nonzero; fill-opacity: 1;" d="M 333.738281 167.136719 L 228.601562 151.792969 L 228.601562 174.53125 L 245.683594 177.023438 L 250.152344 202.617188 L 228.601562 202.019531 L 228.601562 224.542969 L 254.101562 225.257812 L 259.285156 254.945312 L 228.601562 258.960938 L 228.601562 281.632812 C 249.226562 278.933594 266.34375 276.714844 266.34375 276.714844 C 287.765625 273.914062 307.34375 263.507812 321.464844 247.417969 C 335.585938 231.328125 343.363281 210.566406 343.363281 188.960938 L 343.363281 178.269531 C 343.367188 172.683594 339.265625 167.941406 333.738281 167.136719 Z M 281.1875 249.578125 L 277.054688 225.902344 L 309.167969 226.800781 C 302.265625 236.757812 292.648438 244.695312 281.1875 249.582031 Z M 320.863281 188.960938 C 320.863281 194.332031 320.238281 199.546875 319.0625 204.539062 L 273.101562 203.261719 L 269.117188 180.449219 L 320.859375 188 L 320.859375 188.964844 Z M 319.730469 305.335938 L 228.605469 305.335938 L 228.605469 327.835938 L 319.734375 327.835938 C 325.945312 327.835938 330.984375 322.800781 330.984375 316.585938 C 330.984375 310.375 325.949219 305.335938 319.734375 305.335938 Z M 319.730469 305.335938 " id="animate_14" data-original="#00205B" fill="#7a73ff" class=""></path>
</g><g id="animate_15" style="transform-origin: 173.85px 360.744px;"><path style="stroke: none; fill-rule: nonzero; fill-opacity: 1;" d="M 181.851562 360.742188 C 181.851562 365.164062 178.269531 368.746094 173.847656 368.746094 C 169.429688 368.746094 165.847656 365.164062 165.847656 360.742188 C 165.847656 356.324219 169.429688 352.742188 173.847656 352.742188 C 178.269531 352.742188 181.851562 356.324219 181.851562 360.742188 " id="animate_16" data-original="#E7F5FC" fill="#E7F5FC" class=""></path>
</g><g id="animate_17" style="transform-origin: 285.984px 360.744px;"><path style="stroke: none; fill-rule: nonzero; fill-opacity: 1;" d="M 293.984375 360.742188 C 293.984375 365.164062 290.402344 368.746094 285.984375 368.746094 C 281.566406 368.746094 277.984375 365.164062 277.984375 360.742188 C 277.984375 356.324219 281.566406 352.742188 285.984375 352.742188 C 290.402344 352.742188 293.984375 356.324219 293.984375 360.742188 " id="animate_18" data-original="#CEE2E9" fill="#CEE2E9" class=""></path>
</g></g>
</svg>