<svg xmlns="http://www.w3.org/2000/svg" width="150pt" height="150pt" viewBox="0 0 150 150" version="1.1" class="iconadda">
<g>
<g id="Faq_wIFj6nf-0"><path style=" stroke:none;fill-rule:nonzero;fill:#000001;fill-opacity:1;" d="M 75 137.5 C 91.574219 137.5 107.472656 130.914062 119.195312 119.195312 C 130.914062 107.472656 137.5 91.574219 137.5 75 C 137.5 58.425781 130.914062 42.527344 119.195312 30.804688 C 107.472656 19.085938 91.574219 12.5 75 12.5 C 58.425781 12.5 42.527344 19.085938 30.804688 30.804688 C 19.085938 42.527344 12.5 58.425781 12.5 75 C 12.5 91.574219 19.085938 107.472656 30.804688 119.195312 C 42.527344 130.914062 58.425781 137.5 75 137.5 Z M 75 125 C 71.207031 125 67.789062 122.714844 66.339844 119.210938 C 64.886719 115.710938 65.691406 111.675781 68.371094 108.996094 C 71.050781 106.316406 75.085938 105.511719 78.585938 106.964844 C 82.089844 108.414062 84.375 111.832031 84.375 115.625 C 84.375 120.800781 80.175781 125 75 125 Z M 50 56.210938 C 49.90625 51.410156 51.234375 46.6875 53.8125 42.636719 C 56.390625 38.585938 60.105469 35.382812 64.492188 33.429688 C 72.402344 29.898438 81.566406 30.644531 88.800781 35.40625 C 95.457031 39.8125 99.609375 47.136719 99.972656 55.113281 C 100.335938 63.089844 96.867188 70.761719 90.636719 75.757812 C 86.332031 79.074219 83.230469 83.71875 81.820312 88.96875 C 81.007812 92.324219 77.628906 94.386719 74.273438 93.574219 C 70.917969 92.765625 68.859375 89.386719 69.667969 86.03125 C 71.703125 78.09375 76.320312 71.058594 82.792969 66.03125 C 85.914062 63.535156 87.652344 59.699219 87.472656 55.707031 C 87.292969 51.714844 85.214844 48.046875 81.882812 45.84375 C 78.136719 43.394531 73.390625 43.0625 69.34375 44.96875 C 65.03125 47.03125 62.339844 51.441406 62.46875 56.21875 C 62.246094 59.492188 59.53125 62.035156 56.25 62.042969 C 52.96875 62.050781 50.238281 59.523438 50 56.25 Z M 50 56.210938 " />
</g></g>
</svg>