<svg width="32" height="30" viewBox="0 0 32 30" fill="none" xmlns="http://www.w3.org/2000/svg">
<path d="M16.723 1.46557L20.3573 8.80271C20.44 8.98895 20.57 9.15026 20.7344 9.27058C20.8989 9.39087 21.092 9.466 21.2945 9.48843L29.3172 10.677C29.5497 10.7068 29.7687 10.8022 29.9488 10.9519C30.1289 11.1015 30.2628 11.2994 30.3346 11.5223C30.4066 11.7452 30.4135 11.9839 30.3547 12.2107C30.2962 12.4374 30.1742 12.6427 30.003 12.8027L24.2201 18.5399C24.0727 18.6778 23.9618 18.8503 23.898 19.042C23.834 19.2336 23.8192 19.4381 23.8544 19.637L25.2487 27.7055C25.2891 27.9375 25.2635 28.1759 25.1751 28.3939C25.0866 28.612 24.9387 28.8008 24.7481 28.9391C24.5577 29.0771 24.3321 29.159 24.0974 29.1754C23.8626 29.1917 23.6279 29.1418 23.4201 29.0312L16.1973 25.214C16.0124 25.1233 15.8091 25.0762 15.603 25.0762C15.397 25.0762 15.1937 25.1233 15.0087 25.214L7.78588 29.0312C7.57809 29.1418 7.34346 29.1917 7.1087 29.1754C6.87393 29.159 6.64844 29.0771 6.45793 28.9391C6.26739 28.8008 6.11946 28.612 6.03096 28.3939C5.94248 28.1759 5.91695 27.9375 5.95731 27.7055L7.3516 19.5456C7.38693 19.3467 7.37199 19.1422 7.30812 18.9506C7.24426 18.7589 7.13347 18.5863 6.98588 18.4484L1.13446 12.8027C0.961349 12.6384 0.839605 12.4273 0.783979 12.1952C0.728354 11.9631 0.741237 11.7198 0.821061 11.4948C0.900887 11.2699 1.04423 11.0729 1.23373 10.9277C1.42323 10.7826 1.65076 10.6955 1.88874 10.677L9.9116 9.48843C10.1141 9.466 10.3072 9.39087 10.4716 9.27058C10.6361 9.15026 10.7661 8.98895 10.8487 8.80271L14.483 1.46557C14.582 1.25188 14.74 1.07096 14.9385 0.944165C15.1369 0.817371 15.3675 0.75 15.603 0.75C15.8385 0.75 16.0691 0.817371 16.2676 0.944165C16.466 1.07096 16.6241 1.25188 16.723 1.46557Z" fill="#FB9506" stroke="#FB9506" stroke-width="1.5" stroke-linecap="round" stroke-linejoin="round"/>
</svg>
