<svg xmlns="http://www.w3.org/2000/svg" width="150pt" height="150pt" viewBox="0 0 150 150" version="1.1" class="iconadda">
<g id="animate_0" transform="rotate(90,75,75) translate(0,0) scale(1.0,1.0)">
<g id="animate_1" style="transform-origin: 31.25px 50px;"><path style="stroke-width: 1; stroke-linecap: round; stroke-linejoin: miter; stroke-opacity: 1; stroke-miterlimit: 4;" d="M 5 12 L 5 4 " transform="matrix(6.25,0,0,6.25,0,0)" id="animate_2" stroke="#222222" data-original="#222222" fill="none" stroke-width="1"></path>
</g><g id="animate_3" style="transform-origin: 118.75px 115.625px;"><path style="stroke-width: 1; stroke-linecap: round; stroke-linejoin: miter; stroke-opacity: 1; stroke-miterlimit: 4;" d="M 19 20 L 19 17 " transform="matrix(6.25,0,0,6.25,0,0)" id="animate_4" stroke="#222222" data-original="#222222" fill="none" stroke-width="1"></path>
</g><g id="animate_5" style="transform-origin: 31.25px 112.5px;"><path style="stroke-width: 1; stroke-linecap: round; stroke-linejoin: miter; stroke-opacity: 1; stroke-miterlimit: 4;" d="M 5 20 L 5 16 " transform="matrix(6.25,0,0,6.25,0,0)" id="animate_6" stroke="#222222" data-original="#222222" fill="none" stroke-width="1"></path>
</g><g id="animate_7" style="transform-origin: 118.75px 53.125px;"><path style="stroke-width: 1; stroke-linecap: round; stroke-linejoin: miter; stroke-opacity: 1; stroke-miterlimit: 4;" d="M 19 13 L 19 4 " transform="matrix(6.25,0,0,6.25,0,0)" id="animate_8" stroke="#222222" data-original="#222222" fill="none" stroke-width="1"></path>
</g><g id="animate_9" style="transform-origin: 75px 34.375px;"><path style="stroke-width: 1; stroke-linecap: round; stroke-linejoin: miter; stroke-opacity: 1; stroke-miterlimit: 4;" d="M 12 7 L 12 4 " transform="matrix(6.25,0,0,6.25,0,0)" id="animate_10" stroke="#222222" data-original="#222222" fill="none" stroke-width="1"></path>
</g><g id="animate_11" style="transform-origin: 75px 96.875px;"><path style="stroke-width: 1; stroke-linecap: round; stroke-linejoin: miter; stroke-opacity: 1; stroke-miterlimit: 4;" d="M 12 20 L 12 11 " transform="matrix(6.25,0,0,6.25,0,0)" id="animate_12" stroke="#222222" data-original="#222222" fill="none" stroke-width="1"></path>
</g><g id="animate_13" style="transform-origin: 31.25px 87.5px;"><path style="stroke-width: 1; stroke-linecap: round; stroke-linejoin: miter; stroke-opacity: 1; stroke-miterlimit: 4;" d="M 7 14 C 7 15.104375 6.104375 16 5 16 C 3.895625 16 3 15.104375 3 14 C 3 12.895625 3.895625 12 5 12 C 6.104375 12 7 12.895625 7 14 " transform="matrix(6.25,0,0,6.25,0,0)" id="animate_14" stroke="#222222" data-original="#222222" fill="none" stroke-width="1"></path>
</g><g id="animate_15" style="transform-origin: 75px 56.25px;"><path style="stroke-width: 1; stroke-linecap: round; stroke-linejoin: miter; stroke-opacity: 1; stroke-miterlimit: 4;" d="M 14 9 C 14 10.104375 13.104375 11 12 11 C 10.895625 11 10 10.104375 10 9 C 10 7.895625 10.895625 7 12 7 C 13.104375 7 14 7.895625 14 9 " transform="matrix(6.25,0,0,6.25,0,0)" id="animate_16" stroke="#222222" data-original="#222222" fill="none" stroke-width="1"></path>
</g><g id="animate_17" style="transform-origin: 118.75px 93.75px;"><path style="stroke-width: 1; stroke-linecap: round; stroke-linejoin: miter; stroke-opacity: 1; stroke-miterlimit: 4;" d="M 21 15 C 21 16.104375 20.104375 17 19 17 C 17.895625 17 17 16.104375 17 15 C 17 13.895625 17.895625 13 19 13 C 20.104375 13 21 13.895625 21 15 " transform="matrix(6.25,0,0,6.25,0,0)" id="animate_18" stroke="#222222" data-original="#222222" fill="none" stroke-width="1"></path>
</g></g>
</svg>