<svg xmlns="http://www.w3.org/2000/svg" width="150pt" height="150pt" viewBox="0 0 150 150" version="1.1" class="iconadda">
<g>
<g id="Google_Pay_2Sjycqr-0"><path style="fill-rule:nonzero;fill:#fefeff;fill-opacity:1;stroke-width:1;stroke-linecap:butt;stroke-linejoin:miter;stroke:rgb(95.294118%,95.294118%,95.294118%);stroke-opacity:1;stroke-miterlimit:4;" d="M 3.999583 0.500521 L 53.998904 0.500521 C 55.932237 0.500521 57.498539 2.433854 57.498539 4.000156 L 57.498539 35.999842 C 57.498539 37.933176 55.932237 39.499478 53.998904 39.499478 L 3.999583 39.499478 C 2.06625 39.499478 0.499948 37.566144 0.499948 35.999842 L 0.499948 4.000156 C 0.499948 2.066823 2.06625 0.500521 3.999583 0.500521 Z M 3.999583 0.500521 " transform="matrix(2.586207,0,0,2.586207,0.000000000000009188,23.275862)" />
</g><g id="Google_Pay_2Sjycqr-1"><path style=" stroke:none;fill-rule:evenodd;fill:#5f6269;fill-opacity:1;" d="M 72.199219 85.652344 L 72.199219 73.980469 L 78.511719 73.980469 C 81.113281 73.984375 83.300781 73.164062 85.070312 71.527344 C 86.863281 69.976562 87.863281 67.742188 87.8125 65.414062 C 87.847656 63.097656 86.847656 60.882812 85.070312 59.332031 C 83.316406 57.6875 80.953125 56.789062 78.511719 56.839844 L 68.378906 56.839844 L 68.378906 85.652344 Z M 72.199219 70.445312 L 72.199219 60.382812 L 78.605469 60.382812 C 80.035156 60.34375 81.410156 60.902344 82.386719 61.914062 C 83.367188 62.835938 83.921875 64.105469 83.921875 65.433594 C 83.921875 66.757812 83.367188 68.03125 82.386719 68.953125 C 81.398438 69.945312 80.027344 70.484375 78.605469 70.445312 Z M 72.199219 70.445312 " />
</g><g id="Google_Pay_2Sjycqr-2"><path style=" stroke:none;fill-rule:evenodd;fill:#5f6269;fill-opacity:1;" d="M 103.300781 67.488281 C 101.667969 66.023438 99.4375 65.292969 96.613281 65.292969 C 92.988281 65.292969 90.25 66.582031 88.398438 69.15625 L 91.761719 71.210938 C 93.007812 69.464844 94.695312 68.59375 96.828125 68.59375 C 98.1875 68.578125 99.503906 69.058594 100.515625 69.941406 C 101.523438 70.75 102.101562 71.953125 102.09375 73.21875 L 102.09375 74.0625 C 100.625 73.257812 98.757812 72.855469 96.488281 72.855469 C 93.832031 72.859375 91.707031 73.464844 90.117188 74.667969 C 88.523438 75.875 87.730469 77.496094 87.730469 79.535156 C 87.695312 81.394531 88.527344 83.167969 89.992188 84.363281 C 91.5 85.652344 93.378906 86.292969 95.617188 86.292969 C 98.246094 86.292969 100.347656 85.167969 101.929688 82.914062 L 102.097656 82.914062 L 102.097656 85.652344 L 105.75 85.652344 L 105.75 73.5 C 105.75 70.953125 104.933594 68.949219 103.300781 67.488281 Z M 92.941406 82.03125 C 92.140625 81.472656 91.667969 80.570312 91.671875 79.617188 C 91.671875 78.542969 92.191406 77.648438 93.238281 76.914062 C 94.273438 76.1875 95.570312 75.824219 97.121094 75.824219 C 99.25 75.824219 100.910156 76.285156 102.101562 77.203125 C 102.101562 78.757812 101.46875 80.113281 100.203125 81.265625 C 99.066406 82.371094 97.519531 82.992188 95.90625 82.996094 C 94.832031 83.015625 93.785156 82.671875 92.941406 82.03125 Z M 92.941406 82.03125 " />
</g><g id="Google_Pay_2Sjycqr-3"><path style=" stroke:none;fill-rule:evenodd;fill:#5f6269;fill-opacity:1;" d="M 126.722656 65.9375 L 113.96875 94.339844 L 110.023438 94.339844 L 114.757812 84.402344 L 106.371094 65.9375 L 110.523438 65.9375 L 116.585938 80.097656 L 116.667969 80.097656 L 122.566406 65.9375 Z M 126.722656 65.9375 " />
</g><g id="Google_Pay_2Sjycqr-4"><path style=" stroke:none;fill-rule:evenodd;fill:#4285f5;fill-opacity:1;" d="M 56.761719 71.46875 C 56.765625 70.339844 56.667969 69.214844 56.46875 68.105469 L 40.359375 68.105469 L 40.359375 74.476562 L 49.585938 74.476562 C 49.203125 76.535156 47.972656 78.351562 46.175781 79.507812 L 46.175781 83.644531 L 51.679688 83.644531 C 54.90625 80.765625 56.761719 76.507812 56.761719 71.46875 Z M 56.761719 71.46875 " />
</g><g id="Google_Pay_2Sjycqr-5"><path style=" stroke:none;fill-rule:evenodd;fill:#34a854;fill-opacity:1;" d="M 40.359375 87.644531 C 44.96875 87.644531 48.851562 86.175781 51.679688 83.648438 L 46.175781 79.511719 C 44.640625 80.515625 42.667969 81.09375 40.359375 81.09375 C 35.902344 81.09375 32.121094 78.179688 30.769531 74.257812 L 25.09375 74.257812 L 25.09375 78.523438 C 27.996094 84.113281 33.902344 87.644531 40.359375 87.644531 Z M 40.359375 87.644531 " />
</g><g id="Google_Pay_2Sjycqr-6"><path style=" stroke:none;fill-rule:evenodd;fill:#fbbb04;fill-opacity:1;" d="M 30.769531 74.261719 C 30.054688 72.203125 30.054688 69.980469 30.769531 67.925781 L 30.769531 63.660156 L 25.09375 63.660156 C 22.671875 68.335938 22.671875 73.847656 25.09375 78.523438 Z M 30.769531 74.261719 " />
</g><g id="Google_Pay_2Sjycqr-7"><path style=" stroke:none;fill-rule:evenodd;fill:#ea4336;fill-opacity:1;" d="M 40.359375 61.09375 C 42.796875 61.054688 45.148438 61.945312 46.914062 63.574219 L 51.789062 58.851562 C 48.695312 56.039062 44.601562 54.492188 40.359375 54.539062 C 33.902344 54.539062 27.996094 58.070312 25.09375 63.660156 L 30.769531 67.925781 C 32.121094 64.003906 35.902344 61.09375 40.359375 61.09375 Z M 40.359375 61.09375 " />
</g></g>
</svg>