<svg xmlns="http://www.w3.org/2000/svg" width="384pt" height="384pt" viewBox="0 0 384 384" version="1.1" class="iconadda">
<g id="animate_0" transform="rotate(0,192,192) translate(0,0) scale(1.0,1.0)">
<g id="animate_1" style="transform-origin: 192px 192px;"><path style="stroke: none; fill-rule: nonzero; fill-opacity: 1;" d="M 112 0 L 64 0 C 47.027344 0 30.746094 6.742188 18.746094 18.746094 C 6.742188 30.746094 0 47.027344 0 64 L 0 112 C 0 128.972656 6.742188 145.253906 18.746094 157.253906 C 30.746094 169.257812 47.027344 176 64 176 L 112 176 C 128.972656 176 145.253906 169.257812 157.253906 157.253906 C 169.257812 145.253906 176 128.972656 176 112 L 176 64 C 176 47.027344 169.257812 30.746094 157.253906 18.746094 C 145.253906 6.742188 128.972656 0 112 0 Z M 144 112 C 144 120.488281 140.628906 128.625 134.628906 134.628906 C 128.625 140.628906 120.488281 144 112 144 L 64 144 C 55.511719 144 47.375 140.628906 41.371094 134.628906 C 35.371094 128.625 32 120.488281 32 112 L 32 64 C 32 55.511719 35.371094 47.375 41.371094 41.371094 C 47.375 35.371094 55.511719 32 64 32 L 112 32 C 120.488281 32 128.625 35.371094 134.628906 41.371094 C 140.628906 47.375 144 55.511719 144 64 Z M 112 208 L 64 208 C 47.027344 208 30.746094 214.742188 18.746094 226.746094 C 6.742188 238.746094 0 255.027344 0 272 L 0 320 C 0 336.972656 6.742188 353.253906 18.746094 365.253906 C 30.746094 377.257812 47.027344 384 64 384 L 112 384 C 128.972656 384 145.253906 377.257812 157.253906 365.253906 C 169.257812 353.253906 176 336.972656 176 320 L 176 272 C 176 255.027344 169.257812 238.746094 157.253906 226.746094 C 145.253906 214.742188 128.972656 208 112 208 Z M 144 320 C 144 328.488281 140.628906 336.625 134.628906 342.628906 C 128.625 348.628906 120.488281 352 112 352 L 64 352 C 55.511719 352 47.375 348.628906 41.371094 342.628906 C 35.371094 336.625 32 328.488281 32 320 L 32 272 C 32 263.511719 35.371094 255.375 41.371094 249.371094 C 47.375 243.371094 55.511719 240 64 240 L 112 240 C 120.488281 240 128.625 243.371094 134.628906 249.371094 C 140.628906 255.375 144 263.511719 144 272 Z M 320 208 L 272 208 C 255.027344 208 238.746094 214.742188 226.746094 226.746094 C 214.742188 238.746094 208 255.027344 208 272 L 208 320 C 208 336.972656 214.742188 353.253906 226.746094 365.253906 C 238.746094 377.257812 255.027344 384 272 384 L 320 384 C 336.972656 384 353.253906 377.257812 365.253906 365.253906 C 377.257812 353.253906 384 336.972656 384 320 L 384 272 C 384 255.027344 377.257812 238.746094 365.253906 226.746094 C 353.253906 214.742188 336.972656 208 320 208 Z M 352 320 C 352 328.488281 348.628906 336.625 342.628906 342.628906 C 336.625 348.628906 328.488281 352 320 352 L 272 352 C 263.511719 352 255.375 348.628906 249.371094 342.628906 C 243.371094 336.625 240 328.488281 240 320 L 240 272 C 240 263.511719 243.371094 255.375 249.371094 249.371094 C 255.375 243.371094 263.511719 240 272 240 L 320 240 C 328.488281 240 336.625 243.371094 342.628906 249.371094 C 348.628906 255.375 352 263.511719 352 272 Z M 224 112 L 352 112 C 357.714844 112 363 108.949219 365.855469 104 C 368.714844 99.050781 368.714844 92.949219 365.855469 88 C 363 83.050781 357.714844 80 352 80 L 224 80 C 218.285156 80 213 83.050781 210.144531 88 C 207.285156 92.949219 207.285156 99.050781 210.144531 104 C 213 108.949219 218.285156 112 224 112 Z M 224 112 " id="animate_2" data-original="#000001" fill="#ffffff" class=""></path>
</g></g>
</svg>