<svg xmlns="http://www.w3.org/2000/svg" width="384pt" height="384pt" viewBox="0 0 384 384" version="1.1" class="iconadda">
<g>
<g id="Love_free_icon_rERpff2-0"><path style=" stroke:none;fill-rule:nonzero;fill:#fe5393;fill-opacity:1;" d="M 283.734375 21.164062 C 242.769531 21.164062 207.546875 49.4375 191.992188 89.941406 C 176.4375 49.433594 141.214844 21.164062 100.25 21.164062 C 44.886719 21.164062 0 72.804688 0 136.507812 C 0 282.3125 191.996094 362.835938 191.996094 362.835938 C 191.996094 362.835938 382.097656 281.226562 383.992188 136.507812 C 384.820312 72.8125 339.105469 21.164062 283.734375 21.164062 Z M 283.734375 21.164062 " />
</g><g id="Love_free_icon_rERpff2-1"><path style=" stroke:none;fill-rule:nonzero;fill:#fa3d82;fill-opacity:1;" d="M 283.667969 21.050781 C 278.417969 21.050781 273.261719 21.523438 268.226562 22.417969 C 316.410156 30.976562 353.8125 78.785156 353.0625 136.46875 C 351.5 256.070312 221.484375 332.589844 176.25 355.617188 C 185.96875 360.476562 191.867188 362.949219 191.867188 362.949219 C 191.867188 362.949219 382.097656 281.285156 383.988281 136.46875 C 384.820312 72.730469 339.074219 21.050781 283.667969 21.050781 Z M 283.667969 21.050781 " />
</g></g>
</svg>