<svg xmlns="http://www.w3.org/2000/svg" width="150pt" height="150pt" viewBox="0 0 150 150" version="1.1" class="iconadda">
<g>
<g id="Citymapper_euXpiV8-0"><path style=" stroke:none;fill-rule:nonzero;fill:#000001;fill-opacity:1;" d="M 26.5625 75 C 26.5625 78.882812 23.414062 82.03125 19.53125 82.03125 C 15.648438 82.03125 12.5 78.882812 12.5 75 C 12.5 71.117188 15.648438 67.96875 19.53125 67.96875 C 23.414062 67.96875 26.5625 71.117188 26.5625 75 " />
</g><g id="Citymapper_euXpiV8-1"><path style=" stroke:none;fill-rule:nonzero;fill:#000001;fill-opacity:1;" d="M 137.5 75 C 137.5 78.882812 134.351562 82.03125 130.46875 82.03125 C 126.585938 82.03125 123.4375 78.882812 123.4375 75 C 123.4375 71.117188 126.585938 67.96875 130.46875 67.96875 C 134.351562 67.96875 137.5 71.117188 137.5 75 " />
</g><g id="Citymapper_euXpiV8-2"><path style="fill:none;stroke-width:12;stroke-linecap:round;stroke-linejoin:round;stroke:rgb(0%,0%,0%);stroke-opacity:1;stroke-miterlimit:4;" d="M 58 96 L 134 96 M 134 96 L 98 60 M 134 96 L 98 132 " transform="matrix(0.78125,0,0,0.78125,0,0)" />
</g></g>
</svg>