<svg xmlns="http://www.w3.org/2000/svg" width="384pt" height="384pt" viewBox="0 0 384 384" version="1.1" class="iconadda">
<g id="animate_0" transform="rotate(0,192,192) translate(0,0) scale(1.0,1.0)">
<g id="animate_1" style="transform-origin: 192.002px 192px;"><path style="stroke: none; fill-rule: nonzero; fill-opacity: 1;" d="M 112 0 L 64 0 C 47.027344 0 30.746094 6.742188 18.746094 18.746094 C 6.742188 30.746094 0 47.027344 0 64 L 0 112 C 0 128.972656 6.742188 145.253906 18.746094 157.253906 C 30.746094 169.257812 47.027344 176 64 176 L 112 176 C 128.972656 176 145.253906 169.257812 157.253906 157.253906 C 169.257812 145.253906 176 128.972656 176 112 L 176 64 C 176 47.027344 169.257812 30.746094 157.253906 18.746094 C 145.253906 6.742188 128.972656 0 112 0 Z M 144 112 C 144 120.488281 140.628906 128.625 134.628906 134.628906 C 128.625 140.628906 120.488281 144 112 144 L 64 144 C 55.511719 144 47.375 140.628906 41.371094 134.628906 C 35.371094 128.625 32 120.488281 32 112 L 32 64 C 32 55.511719 35.371094 47.375 41.371094 41.371094 C 47.375 35.371094 55.511719 32 64 32 L 112 32 C 120.488281 32 128.625 35.371094 134.628906 41.371094 C 140.628906 47.375 144 55.511719 144 64 Z M 112 208 L 64 208 C 47.027344 208 30.746094 214.742188 18.746094 226.746094 C 6.742188 238.746094 0 255.027344 0 272 L 0 320 C 0 336.972656 6.742188 353.253906 18.746094 365.253906 C 30.746094 377.257812 47.027344 384 64 384 L 112 384 C 128.972656 384 145.253906 377.257812 157.253906 365.253906 C 169.257812 353.253906 176 336.972656 176 320 L 176 272 C 176 255.027344 169.257812 238.746094 157.253906 226.746094 C 145.253906 214.742188 128.972656 208 112 208 Z M 144 320 C 144 328.488281 140.628906 336.625 134.628906 342.628906 C 128.625 348.628906 120.488281 352 112 352 L 64 352 C 55.511719 352 47.375 348.628906 41.371094 342.628906 C 35.371094 336.625 32 328.488281 32 320 L 32 272 C 32 263.511719 35.371094 255.375 41.371094 249.371094 C 47.375 243.371094 55.511719 240 64 240 L 112 240 C 120.488281 240 128.625 243.371094 134.628906 249.371094 C 140.628906 255.375 144 263.511719 144 272 Z M 356.6875 304.785156 L 320 341.425781 L 320 42.128906 L 356.6875 78.769531 C 360.730469 82.808594 366.625 84.386719 372.148438 82.90625 C 377.667969 81.421875 381.980469 77.109375 383.460938 71.585938 C 384.9375 66.0625 383.355469 60.167969 379.3125 56.128906 L 337.921875 14.800781 C 328.921875 5.8125 316.71875 0.761719 304 0.761719 C 291.28125 0.761719 279.078125 5.8125 270.078125 14.800781 L 228.6875 56.128906 C 224.644531 60.167969 223.0625 66.0625 224.539062 71.585938 C 226.019531 77.109375 230.332031 81.421875 235.851562 82.90625 C 241.375 84.386719 247.269531 82.808594 251.3125 78.769531 L 288 42.128906 L 288 341.425781 L 251.3125 304.785156 C 247.269531 300.742188 241.375 299.164062 235.851562 300.648438 C 230.332031 302.128906 226.019531 306.445312 224.539062 311.96875 C 223.0625 317.492188 224.644531 323.382812 228.6875 327.425781 L 270.078125 368.753906 C 279.078125 377.742188 291.28125 382.789062 304 382.789062 C 316.71875 382.789062 328.921875 377.742188 337.921875 368.753906 L 379.3125 327.425781 C 383.355469 323.382812 384.9375 317.492188 383.460938 311.96875 C 381.980469 306.445312 377.667969 302.128906 372.148438 300.648438 C 366.625 299.164062 360.730469 300.742188 356.6875 304.785156 Z M 356.6875 304.785156 " id="animate_2" data-original="#000001" fill="#ffffff"></path>
</g></g>
</svg>