<svg xmlns="http://www.w3.org/2000/svg" width="150pt" height="150pt" viewBox="0 0 150 150" version="1.1" class="iconadda">
<g>
<g id="Basic_Location_Map-0"><path style=" stroke:none;fill-rule:nonzero;fill:#333334;fill-opacity:1;" d="M 74.324219 12.75 C 49.089844 13.109375 28.535156 33.746094 28.277344 58.980469 C 28.152344 71.269531 32.769531 82.476562 40.414062 90.886719 C 46.613281 97.703125 52.199219 105.03125 57.0625 112.804688 C 61.625 120.09375 65.535156 127.789062 68.695312 135.828125 C 68.882812 136.3125 69.117188 136.75 69.382812 137.152344 C 71.222656 137.222656 73.101562 137.257812 75 137.257812 C 76.90625 137.257812 78.78125 137.222656 80.617188 137.152344 C 80.882812 136.75 81.117188 136.3125 81.304688 135.828125 L 81.472656 135.398438 C 84.578125 127.503906 88.417969 119.953125 92.894531 112.796875 C 97.738281 105.039062 103.328125 97.742188 109.523438 90.957031 C 117.101562 82.652344 121.726562 71.601562 121.726562 59.472656 C 121.726562 33.4375 100.4375 12.378906 74.324219 12.75 Z M 75 82.542969 C 62.257812 82.542969 51.929688 72.214844 51.929688 59.472656 C 51.929688 46.730469 62.257812 36.402344 75 36.402344 C 87.742188 36.402344 98.070312 46.730469 98.070312 59.472656 C 98.070312 72.214844 87.742188 82.542969 75 82.542969 Z M 75 82.542969 " />
</g><g id="Basic_Location_Map-1"><path style=" stroke:none;fill-rule:nonzero;fill:#333334;fill-opacity:1;" d="M 58.773438 136.332031 C 42.824219 134.441406 31.570312 129.832031 31.570312 124.457031 C 31.570312 120.519531 37.609375 116.996094 47.105469 114.652344 C 47.792969 115.6875 48.464844 116.730469 49.117188 117.777344 C 52.84375 123.742188 56.09375 129.976562 58.773438 136.332031 Z M 58.773438 136.332031 " />
</g><g id="Basic_Location_Map-2"><path style=" stroke:none;fill-rule:nonzero;fill:#333334;fill-opacity:1;" d="M 118.429688 124.460938 C 118.429688 129.839844 107.167969 134.445312 91.210938 136.335938 C 93.871094 129.980469 97.105469 123.746094 100.851562 117.761719 C 101.503906 116.714844 102.171875 115.679688 102.859375 114.644531 C 112.375 116.988281 118.429688 120.515625 118.429688 124.460938 Z M 118.429688 124.460938 " />
</g></g>
</svg>