<svg xmlns="http://www.w3.org/2000/svg" width="150pt" height="150pt" viewBox="0 0 150 150" version="1.1" class="iconadda">
<g id="animate_0" transform="rotate(0,75,75) translate(18.75,18.75) scale(0.75,0.75)">
<g id="animate_1" style="transform-origin: 78.892px 66.3122px;"><path style="stroke-width: 6; stroke-linecap: round; stroke-linejoin: round; stroke-opacity: 0.9; stroke-miterlimit: 4;" d="M 205.739583 290.666667 C 155.40625 242.958333 94.958333 90.708333 198.78125 64.979167 C 256.84375 50.59375 289.260417 117.65625 275.875 166.28125 C 264.5625 207.395833 234.229167 242.802083 215.302083 280.322917 " transform="matrix(0.375,0,0,0.375,0,0)" id="animate_2" stroke="#ffffff" data-original="#000000" fill="none" stroke-width="6" class=""></path>
</g><g id="animate_3" style="transform-origin: 78.3999px 55.209px;"><path style="stroke-width: 6; stroke-linecap: round; stroke-linejoin: round; stroke-opacity: 0.9; stroke-miterlimit: 4;" d="M 189.104167 132.104167 C 246.895833 97.322917 240.302083 180.364583 200.75 170.010417 C 189.104167 166.96875 186.677083 160.822917 186.677083 150.041667 " transform="matrix(0.375,0,0,0.375,0,0)" id="animate_4" stroke="#ffffff" data-original="#000000" fill="none" stroke-width="6" class=""></path>
</g><g id="animate_5" style="transform-origin: 75.1877px 114.675px;"><path style="stroke-width: 6; stroke-linecap: round; stroke-linejoin: round; stroke-opacity: 0.9; stroke-miterlimit: 4;" d="M 154.927083 274.875 C 6.302083 328.739583 232.114583 357.479167 281.260417 319.166667 C 318.052083 290.458333 277.822917 274.875 249.1875 274.875 " transform="matrix(0.375,0,0,0.375,0,0)" id="animate_6" stroke="#ffffff" data-original="#000000" fill="none" stroke-width="6" class=""></path>
</g></g>
</svg>