<svg width="18" height="19" viewBox="0 0 18 19" fill="none" xmlns="http://www.w3.org/2000/svg">
<path d="M14.1437 7.17871H3.85798C3.1479 7.17871 2.57227 7.75434 2.57227 8.46443V16.1787C2.57227 16.8888 3.1479 17.4644 3.85798 17.4644H14.1437C14.8538 17.4644 15.4294 16.8888 15.4294 16.1787V8.46443C15.4294 7.75434 14.8538 7.17871 14.1437 7.17871Z" stroke="#1560BD" stroke-width="1.5" stroke-linecap="round" stroke-linejoin="round"/>
<path d="M13.5 7.17857V5.25C13.5 4.05653 13.0259 2.91193 12.182 2.06802C11.3381 1.22411 10.1935 0.75 9 0.75C7.80653 0.75 6.66193 1.22411 5.81802 2.06802C4.97411 2.91193 4.5 4.05653 4.5 5.25V7.17857" stroke="#1560BD" stroke-width="1.5" stroke-linecap="round" stroke-linejoin="round"/>
<path d="M9.00028 12.9644C9.35532 12.9644 9.64314 12.6766 9.64314 12.3216C9.64314 11.9665 9.35532 11.6787 9.00028 11.6787C8.64524 11.6787 8.35742 11.9665 8.35742 12.3216C8.35742 12.6766 8.64524 12.9644 9.00028 12.9644Z" fill="#1560BD" stroke="#1560BD" stroke-width="1.5" stroke-linecap="round" stroke-linejoin="round"/>
</svg>
