<svg xmlns="http://www.w3.org/2000/svg" width="384pt" height="384pt" viewBox="0 0 384 384" version="1.1" class="iconadda">
<g>
<g id="Maps_free_icon_M5E5ksQ-0"><path style=" stroke:none;fill-rule:nonzero;fill:#fef6e8;fill-opacity:1;" d="M 360.820312 384 L 23.179688 384 C 10.378906 384 0 373.621094 0 360.820312 L 0 69.113281 C 0 56.3125 10.378906 45.933594 23.179688 45.933594 L 360.820312 45.933594 C 373.621094 45.933594 384 56.3125 384 69.113281 L 384 360.820312 C 384 373.621094 373.621094 384 360.820312 384 Z M 360.820312 384 " />
</g><g id="Maps_free_icon_M5E5ksQ-1"><path style=" stroke:none;fill-rule:nonzero;fill:#fed78f;fill-opacity:1;" d="M 338.179688 384 L 108.691406 154.511719 L 0.113281 263.089844 L 0.113281 363.113281 C 1.265625 374.835938 11.148438 383.996094 23.171875 384 Z M 338.179688 384 " />
</g><g id="Maps_free_icon_M5E5ksQ-2"><path style=" stroke:none;fill-rule:nonzero;fill:#59a1a5;fill-opacity:1;" d="M 78.816406 124.636719 L 6.847656 52.667969 C 3.128906 56.363281 0.65625 61.308594 0.113281 66.820312 L 0.113281 203.335938 Z M 78.816406 124.636719 " />
</g><g id="Maps_free_icon_M5E5ksQ-3"><path style=" stroke:none;fill-rule:nonzero;fill:#b4e7d0;fill-opacity:1;" d="M 382.429688 369.203125 C 383.46875 366.53125 384 363.6875 384 360.820312 L 384 116.789062 L 259.039062 245.8125 Z M 382.429688 369.203125 " />
</g><g id="Maps_free_icon_M5E5ksQ-4"><path style=" stroke:none;fill-rule:nonzero;fill:#fe7894;fill-opacity:1;" d="M 360.828125 45.933594 L 59.164062 45.933594 L 228.195312 214.96875 L 381.488281 58.625 C 377.660156 51.097656 369.847656 45.9375 360.824219 45.933594 Z M 360.828125 45.933594 " />
</g><g id="Maps_free_icon_M5E5ksQ-5"><path style=" stroke:none;fill-rule:nonzero;fill:#fed78f;fill-opacity:1;" d="M 273.289062 45.480469 C 273.289062 81.855469 243.769531 137.835938 227.691406 137.835938 C 210.730469 137.835938 182.09375 78.78125 182.09375 45.480469 C 182.09375 20.363281 202.507812 0 227.691406 0 C 252.875 0 273.289062 20.363281 273.289062 45.480469 Z M 273.289062 45.480469 " />
</g><g id="Maps_free_icon_M5E5ksQ-6"><path style=" stroke:none;fill-rule:nonzero;fill:#fec863;fill-opacity:1;" d="M 227.691406 0 C 222.425781 -0.00390625 217.195312 0.902344 212.238281 2.683594 C 229.816406 9 242.382812 25.773438 242.382812 45.480469 C 242.382812 71.828125 226.894531 108.460938 212.246094 126.65625 C 217.714844 133.558594 223.125 137.839844 227.691406 137.839844 C 243.773438 137.839844 273.289062 81.859375 273.289062 45.484375 C 273.289062 20.363281 252.875 0 227.691406 0 Z M 227.691406 0 " />
</g><g id="Maps_free_icon_M5E5ksQ-7"><path style=" stroke:none;fill-rule:nonzero;fill:#fef6e8;fill-opacity:1;" d="M 248.957031 46.828125 C 248.957031 58.601562 239.4375 68.144531 227.691406 68.144531 C 215.949219 68.144531 206.429688 58.601562 206.429688 46.828125 C 206.429688 35.050781 215.949219 25.507812 227.691406 25.507812 C 239.4375 25.507812 248.957031 35.050781 248.957031 46.828125 " />
</g><g id="Maps_free_icon_M5E5ksQ-8"><path style=" stroke:none;fill-rule:nonzero;fill:#fe7894;fill-opacity:1;" d="M 156.332031 267.144531 C 156.332031 303.519531 126.8125 359.5 110.734375 359.5 C 93.773438 359.5 65.136719 300.445312 65.136719 267.144531 C 65.136719 242.027344 85.550781 221.664062 110.734375 221.664062 C 135.917969 221.664062 156.332031 242.027344 156.332031 267.144531 Z M 156.332031 267.144531 " />
</g><g id="Maps_free_icon_M5E5ksQ-9"><path style=" stroke:none;fill-rule:nonzero;fill:#fe5d70;fill-opacity:1;" d="M 110.730469 221.664062 C 105.464844 221.660156 100.238281 222.566406 95.277344 224.347656 C 112.855469 230.664062 125.421875 247.4375 125.421875 267.144531 C 125.421875 293.492188 109.933594 330.125 95.285156 348.320312 C 100.753906 355.222656 106.164062 359.503906 110.730469 359.503906 C 126.8125 359.503906 156.328125 303.523438 156.328125 267.148438 C 156.328125 242.03125 135.914062 221.667969 110.730469 221.667969 Z M 110.730469 221.664062 " />
</g><g id="Maps_free_icon_M5E5ksQ-10"><path style=" stroke:none;fill-rule:nonzero;fill:#fef6e8;fill-opacity:1;" d="M 131.996094 268.492188 C 131.996094 280.265625 122.476562 289.808594 110.730469 289.808594 C 98.988281 289.808594 89.46875 280.265625 89.46875 268.492188 C 89.46875 256.71875 98.988281 247.171875 110.730469 247.171875 C 122.476562 247.171875 131.996094 256.71875 131.996094 268.492188 " />
</g></g>
</svg>