<svg width="24" height="24" viewBox="0 0 24 24" fill="none" xmlns="http://www.w3.org/2000/svg">
<path d="M12 22C11.3581 22 10.7535 21.6753 10.3256 21.1095L8.93023 19.2542C8.90233 19.2171 8.7907 19.1707 8.74419 19.1614H8.27907C4.4 19.1614 2 18.1132 2 12.8998V8.2616C2 4.16141 4.16744 2 8.27907 2H15.7209C19.8326 2 22 4.16141 22 8.2616V12.8998C22 17 19.8326 19.1614 15.7209 19.1614H15.2558C15.1814 19.1614 15.1163 19.1985 15.0698 19.2542L13.6744 21.1095C13.2465 21.6753 12.6419 22 12 22ZM8.27907 3.39147C4.94884 3.39147 3.39535 4.94063 3.39535 8.2616V12.8998C3.39535 17.0928 4.83721 17.7699 8.27907 17.7699H8.74419C9.21861 17.7699 9.75814 18.039 10.0465 18.4193L11.4419 20.2746C11.7674 20.7013 12.2326 20.7013 12.5581 20.2746L13.9535 18.4193C14.2605 18.0111 14.7442 17.7699 15.2558 17.7699H15.7209C19.0512 17.7699 20.6047 16.2208 20.6047 12.8998V8.2616C20.6047 4.94063 19.0512 3.39147 15.7209 3.39147H8.27907Z" fill="white"/>
<path d="M17 8.75H7C6.59 8.75 6.25 8.41 6.25 8C6.25 7.59 6.59 7.25 7 7.25H17C17.41 7.25 17.75 7.59 17.75 8C17.75 8.41 17.41 8.75 17 8.75Z" fill="white"/>
<path d="M13 13.75H7C6.59 13.75 6.25 13.41 6.25 13C6.25 12.59 6.59 12.25 7 12.25H13C13.41 12.25 13.75 12.59 13.75 13C13.75 13.41 13.41 13.75 13 13.75Z" fill="white"/>
</svg>
