<svg width="24" height="24" viewBox="0 0 24 24" fill="none" xmlns="http://www.w3.org/2000/svg">
<path d="M22.5 11.75C22.5 5.82675 17.6733 1 11.75 1C5.82675 1 1 5.82675 1 11.75C1 14.8675 2.34375 17.6733 4.47225 19.6405C4.47225 19.6513 4.47225 19.6513 4.4615 19.662C4.569 19.7695 4.698 19.8555 4.8055 19.9522C4.87 20.006 4.92375 20.0598 4.98825 20.1028C5.18175 20.264 5.39675 20.4145 5.601 20.565C5.67625 20.6188 5.74075 20.6618 5.816 20.7155C6.02025 20.8553 6.23525 20.9843 6.461 21.1025C6.53625 21.1455 6.62225 21.1993 6.6975 21.2423C6.9125 21.3605 7.13825 21.468 7.37475 21.5648C7.46075 21.6077 7.54675 21.6508 7.63275 21.683C7.86925 21.7798 8.10575 21.8658 8.34225 21.941C8.42825 21.9733 8.51425 22.0055 8.60025 22.027C8.85825 22.1023 9.11625 22.1668 9.37425 22.2313C9.4495 22.2528 9.52475 22.2743 9.61075 22.285C9.91175 22.3495 10.2128 22.3925 10.5245 22.4248C10.5675 22.4248 10.6105 22.4355 10.6535 22.4463C11.019 22.4785 11.3845 22.5 11.75 22.5C12.1155 22.5 12.481 22.4785 12.8358 22.4463C12.8788 22.4463 12.9218 22.4355 12.9648 22.4248C13.2765 22.3925 13.5775 22.3495 13.8785 22.285C13.9537 22.2743 14.029 22.242 14.115 22.2313C14.373 22.1668 14.6418 22.113 14.889 22.027C14.975 21.9948 15.061 21.9625 15.147 21.941C15.3835 21.855 15.6308 21.7798 15.8565 21.683C15.9425 21.6508 16.0285 21.6077 16.1145 21.5648C16.3403 21.468 16.566 21.3605 16.7918 21.2423C16.8778 21.1993 16.953 21.1455 17.0282 21.1025C17.2432 20.9735 17.4583 20.8553 17.6733 20.7155C17.7485 20.6725 17.813 20.6188 17.8883 20.565C18.1033 20.4145 18.3075 20.264 18.501 20.1028C18.5655 20.049 18.6193 19.9953 18.6838 19.9522C18.802 19.8555 18.9203 19.7588 19.0278 19.662C19.0278 19.6513 19.0278 19.6513 19.017 19.6405C21.1563 17.6733 22.5 14.8675 22.5 11.75ZM17.0605 17.0928C14.1473 15.1362 9.37425 15.1362 6.4395 17.0928C5.9665 17.4045 5.5795 17.77 5.257 18.1677C3.623 16.5122 2.6125 14.244 2.6125 11.75C2.6125 6.70825 6.70825 2.6125 11.75 2.6125C16.7918 2.6125 20.8875 6.70825 20.8875 11.75C20.8875 14.244 19.877 16.5122 18.243 18.1677C17.9313 17.77 17.5335 17.4045 17.0605 17.0928Z" fill="#006D5F"/>
<path d="M12 6.92999C9.93 6.92999 8.25 8.60999 8.25 10.68C8.25 12.71 9.84 14.36 11.95 14.42C11.98 14.42 12.02 14.42 12.04 14.42C12.06 14.42 12.09 14.42 12.11 14.42C12.12 14.42 12.13 14.42 12.13 14.42C14.15 14.35 15.74 12.71 15.75 10.68C15.75 8.60999 14.07 6.92999 12 6.92999Z" fill="#006D5F"/>
</svg>
