<svg width="24" height="24" viewBox="0 0 24 24" fill="none" xmlns="http://www.w3.org/2000/svg">
<path d="M12.1144 13.4588C12.0954 13.4588 12.0668 13.4588 12.0477 13.4588C12.0191 13.4588 11.9809 13.4588 11.9523 13.4588C9.78792 13.392 8.16699 11.7044 8.16699 9.62576C8.16699 7.50902 9.89281 5.7832 12.0096 5.7832C14.1263 5.7832 15.8521 7.50902 15.8521 9.62576C15.8426 11.7139 14.2121 13.392 12.143 13.4588C12.124 13.4588 12.124 13.4588 12.1144 13.4588ZM12 7.2039C10.6651 7.2039 9.58769 8.29088 9.58769 9.61623C9.58769 10.9225 10.6079 11.9809 11.9047 12.0285C11.9333 12.019 12.0286 12.019 12.124 12.0285C13.4016 11.9618 14.4028 10.913 14.4123 9.61623C14.4123 8.29088 13.3349 7.2039 12 7.2039Z" fill="#676977"/>
<path d="M12 22.2502C9.43507 22.2502 6.98461 21.2967 5.08717 19.5613C4.91554 19.4088 4.83926 19.1799 4.85833 18.9606C4.98228 17.826 5.68786 16.7676 6.86065 15.9858C9.70205 14.0978 14.3074 14.0978 17.1393 15.9858C18.312 16.7771 19.0176 17.826 19.1416 18.9606C19.1702 19.1895 19.0844 19.4088 18.9127 19.5613C17.0153 21.2967 14.5648 22.2502 12 22.2502ZM6.35531 18.7699C7.9381 20.0953 9.93089 20.8199 12 20.8199C14.069 20.8199 16.0618 20.0953 17.6446 18.7699C17.473 18.1883 17.0153 17.6258 16.3383 17.1681C13.9927 15.6044 10.0167 15.6044 7.65205 17.1681C6.97507 17.6258 6.52693 18.1883 6.35531 18.7699Z" fill="#676977"/>
<path d="M12 22.25C6.34581 22.25 1.75 17.6542 1.75 12C1.75 6.34581 6.34581 1.75 12 1.75C17.6542 1.75 22.25 6.34581 22.25 12C22.25 17.6542 17.6542 22.25 12 22.25ZM12 3.18023C7.13721 3.18023 3.18023 7.13721 3.18023 12C3.18023 16.8628 7.13721 20.8198 12 20.8198C16.8628 20.8198 20.8198 16.8628 20.8198 12C20.8198 7.13721 16.8628 3.18023 12 3.18023Z" fill="#676977"/>
</svg>
