<svg xmlns="http://www.w3.org/2000/svg" width="384pt" height="384pt" viewBox="0 0 384 384" version="1.1" class="iconadda">
<g id="animate_0" transform="rotate(0,192,192) translate(0,0) scale(1,1)">
<g id="animate_1" style="transform-origin: 191.999px 123.96px;"><path style="stroke: none; fill-rule: nonzero; fill-opacity: 1;" d="M 384 159.585938 C 384.007812 164.808594 381.929688 169.820312 378.234375 173.507812 C 370.542969 181.199219 358.078125 181.199219 350.386719 173.507812 C 263.050781 86.175781 120.949219 86.175781 33.613281 173.507812 C 25.921875 181.199219 13.457031 181.199219 5.765625 173.507812 C -1.925781 165.816406 -1.925781 153.351562 5.765625 145.660156 C 108.453125 42.972656 275.542969 42.972656 378.230469 145.660156 L 378.234375 145.660156 C 381.929688 149.351562 384.007812 154.363281 384 159.585938 Z M 384 159.585938 " id="animate_2" data-original="#7a73ff" fill="#7a73ff" class=""></path>
</g><g id="animate_3" style="transform-origin: 192.002px 182.802px;"><path style="stroke: none; fill-rule: nonzero; fill-opacity: 1;" d="M 335.238281 208.347656 C 335.238281 213.386719 333.316406 218.425781 329.472656 222.269531 C 321.78125 229.960938 309.316406 229.960938 301.625 222.269531 C 272.398438 193.042969 233.464844 176.945312 192.003906 176.945312 C 150.542969 176.945312 111.609375 193.042969 82.382812 222.269531 C 74.691406 229.960938 62.226562 229.960938 54.535156 222.269531 C 46.84375 214.578125 46.84375 202.113281 54.535156 194.421875 C 91.199219 157.757812 140.019531 137.566406 192 137.566406 C 243.980469 137.566406 292.800781 157.757812 329.46875 194.425781 C 333.167969 198.113281 335.242188 203.125 335.238281 208.347656 Z M 335.238281 208.347656 " id="animate_4" data-original="#7a73ff" fill="#7a73ff" class=""></path>
</g><g id="animate_5" style="transform-origin: 191.999px 241.625px;"><path style="stroke: none; fill-rule: nonzero; fill-opacity: 1;" d="M 286.472656 257.113281 C 286.480469 262.335938 284.402344 267.347656 280.707031 271.035156 C 273.015625 278.726562 260.550781 278.726562 252.859375 271.035156 C 236.601562 254.777344 214.992188 245.824219 192 245.824219 C 169.011719 245.824219 147.398438 254.777344 131.140625 271.035156 C 123.453125 278.726562 110.984375 278.726562 103.292969 271.035156 C 95.601562 263.34375 95.601562 250.878906 103.292969 243.1875 C 126.988281 219.496094 158.492188 206.445312 192 206.445312 C 225.507812 206.445312 257.011719 219.496094 280.707031 243.1875 C 284.402344 246.878906 286.480469 251.886719 286.472656 257.113281 Z M 286.472656 257.113281 " id="animate_6" data-original="#7a73ff" fill="#7a73ff" class=""></path>
</g><g id="animate_7" style="transform-origin: 192px 143.404px;"><path style="stroke: none; fill-rule: nonzero; fill-opacity: 1;" d="M 192 253.203125 C 172.648438 253.203125 156.960938 237.515625 156.960938 218.164062 L 156.960938 68.644531 C 156.960938 49.292969 172.648438 33.605469 192 33.605469 C 211.351562 33.605469 227.039062 49.292969 227.039062 68.644531 L 227.039062 218.164062 C 227.039062 237.515625 211.351562 253.203125 192 253.203125 Z M 192 253.203125 " id="animate_8" data-original="#fc3f3f" fill="#fc3f3f" class=""></path>
</g><g id="animate_9" style="transform-origin: 192px 315.348px;"><path style="stroke: none; fill-rule: nonzero; fill-opacity: 1;" d="M 227.039062 315.347656 C 227.039062 334.699219 211.351562 350.386719 192 350.386719 C 172.648438 350.386719 156.960938 334.699219 156.960938 315.347656 C 156.960938 295.996094 172.648438 280.308594 192 280.308594 C 211.351562 280.308594 227.039062 295.996094 227.039062 315.347656 " id="animate_10" data-original="#fc3f3f" fill="#fc3f3f" class=""></path>
</g><g id="animate_11" style="transform-origin: 179.117px 192.002px;"><path style="stroke: none; fill-rule: nonzero; fill-opacity: 1;" d="M 201.273438 251.960938 C 198.25 252.789062 195.132812 253.207031 192 253.203125 C 172.644531 253.203125 156.960938 237.519531 156.960938 218.164062 L 156.960938 68.652344 C 156.960938 49.296875 172.644531 33.613281 192 33.613281 C 195.207031 33.613281 198.320312 34.046875 201.273438 34.859375 C 186.421875 38.914062 175.503906 52.507812 175.503906 68.65625 L 175.503906 218.167969 C 175.503906 234.316406 186.421875 247.90625 201.273438 251.964844 Z M 201.273438 349.148438 C 198.25 349.976562 195.132812 350.394531 192 350.390625 C 172.644531 350.390625 156.960938 334.699219 156.960938 315.351562 C 156.960938 295.996094 172.644531 280.3125 192 280.3125 C 195.207031 280.3125 198.320312 280.746094 201.273438 281.554688 C 186.421875 285.609375 175.503906 299.203125 175.503906 315.351562 C 175.503906 331.492188 186.421875 345.089844 201.273438 349.148438 Z M 201.273438 349.148438 " id="animate_12" data-original="#ff0000" fill="#ff0000" class=""></path>
</g></g>
</svg>