<svg xmlns="http://www.w3.org/2000/svg" width="384pt" height="384pt" viewBox="0 0 384 384" version="1.1" class="iconadda">
<g id="animate_0" transform="rotate(0,192,192) translate(0,0) scale(1.0,1.0)">
<g id="animate_1" style="transform-origin: 192px 192px;"><path style="stroke: none; fill-rule: nonzero; fill-opacity: 1;" d="M 192 305.210938 C 152.554688 305.210938 113.839844 294.679688 80.042969 274.753906 C 47.242188 255.417969 19.824219 227.773438 0.757812 194.8125 L 0.757812 194.816406 C -0.253906 193.074219 -0.253906 190.925781 0.757812 189.183594 C 19.824219 156.222656 47.242188 128.582031 80.042969 109.242188 C 113.839844 89.320312 152.554688 78.789062 192 78.789062 C 246.609375 78.789062 299.027344 98.890625 339.597656 135.386719 C 341.90625 137.464844 342.09375 141.019531 340.015625 143.328125 C 337.9375 145.640625 334.382812 145.828125 332.074219 143.75 C 293.574219 109.113281 243.828125 90.039062 192 90.039062 C 154.5625 90.039062 117.824219 100.03125 85.753906 118.9375 C 55.558594 136.742188 30.167969 161.957031 12.152344 192.003906 C 30.167969 222.050781 55.558594 247.265625 85.753906 265.070312 C 117.820312 283.976562 154.558594 293.96875 192 293.96875 C 229.4375 293.96875 266.175781 283.976562 298.246094 265.070312 C 328.441406 247.265625 353.832031 222.050781 371.847656 192.003906 L 371.847656 192 C 364.835938 180.3125 356.707031 169.332031 347.574219 159.214844 C 346.574219 158.105469 346.058594 156.648438 346.132812 155.15625 C 346.210938 153.667969 346.875 152.269531 347.980469 151.269531 C 350.289062 149.1875 353.84375 149.367188 355.925781 151.675781 C 366.320312 163.1875 375.476562 175.761719 383.246094 189.183594 C 384.253906 190.925781 384.253906 193.074219 383.246094 194.816406 C 364.179688 227.777344 336.761719 255.417969 303.960938 274.757812 C 270.160156 294.679688 231.445312 305.210938 192 305.210938 Z M 192 305.210938 " id="animate_2" data-original="#000001" fill="#ffffff" class=""></path>
</g><g id="animate_3" style="transform-origin: 192.004px 194.203px;"><path style="stroke: none; fill-rule: nonzero; fill-opacity: 1;" d="M 192 274.6875 C 173.789062 274.6875 155.945312 268.433594 141.753906 257.074219 C 139.328125 255.132812 138.933594 251.59375 140.875 249.167969 C 142.816406 246.742188 146.355469 246.351562 148.78125 248.292969 C 161.164062 258.199219 176.109375 263.4375 192 263.4375 C 230.175781 263.4375 261.234375 232.378906 261.234375 194.203125 C 261.234375 156.03125 230.175781 124.972656 192 124.972656 C 153.824219 124.972656 122.765625 156.03125 122.765625 194.207031 C 122.765625 208.128906 126.875 221.542969 134.652344 233.003906 L 134.652344 233 C 136.378906 235.570312 135.707031 239.054688 133.140625 240.792969 C 130.578125 242.53125 127.09375 241.871094 125.34375 239.316406 C 116.296875 225.984375 111.519531 210.382812 111.519531 194.203125 C 111.519531 149.824219 147.625 113.71875 192.003906 113.71875 C 236.382812 113.71875 272.488281 149.824219 272.488281 194.203125 C 272.484375 238.582031 236.378906 274.6875 192 274.6875 Z M 192 274.6875 " id="animate_4" data-original="#000001" fill="#ffffff" class=""></path>
</g><g id="animate_5" style="transform-origin: 192px 194.203px;"><path style="stroke: none; fill-rule: nonzero; fill-opacity: 1;" d="M 192 238.746094 C 167.4375 238.746094 147.457031 218.765625 147.457031 194.203125 C 147.457031 169.640625 167.4375 149.660156 192 149.660156 C 216.5625 149.660156 236.542969 169.640625 236.542969 194.203125 C 236.542969 218.765625 216.5625 238.746094 192 238.746094 Z M 192 160.910156 C 173.640625 160.910156 158.707031 175.84375 158.707031 194.203125 C 158.707031 212.5625 173.640625 227.496094 192 227.496094 C 210.359375 227.496094 225.292969 212.5625 225.292969 194.203125 C 225.292969 175.84375 210.359375 160.910156 192 160.910156 Z M 192 160.910156 " id="animate_6" data-original="#000001" fill="#ffffff" class=""></path>
</g></g>
</svg>