<svg xmlns="http://www.w3.org/2000/svg" xmlns:ns1="http://www.w3.org/1999/xlink" width="150pt" height="150pt" viewBox="0 0 150 150" version="1.1" class="iconadda">
<g id="Phone_bcJKsFX-main"><defs>
<g id="Phone_bcJKsFX-14"><filter>
  <g id="Phone_bcJKsFX-13"><feColorMatrix type="matrix" in="SourceGraphic" values="0 0 0 0 1 0 0 0 0 1 0 0 0 0 1 0 0 0 1 0" />
</g></filter>
</g><g id="Phone_bcJKsFX-9"><clipPath>
  <g id="Phone_bcJKsFX-0"><path d="M 32.8125 9.375 L 79.6875 9.375 L 79.6875 37.5 L 32.8125 37.5 Z M 32.8125 9.375 " />
</g></clipPath>
</g><g id="Phone_bcJKsFX-10"><clipPath>
  <g id="Phone_bcJKsFX-6"><rect x="0" y="0" width="135" height="135" />
</g></clipPath>
</g><g id="surface265742" clip-path="url(#clip2)">
<g clip-path="url(#clip3)" clip-rule="nonzero">
<g id="Phone_bcJKsFX-1"><path style=" stroke:none;fill-rule:nonzero;fill:#fefeff;fill-opacity:1;" d="M 32.8125 9.375 L 79.6875 9.375 L 79.6875 37.5 L 32.8125 37.5 Z M 32.8125 9.375 " />
</g></g>
<g id="Phone_bcJKsFX-2"><path style=" stroke:none;fill-rule:nonzero;fill:#000001;fill-opacity:1;" d="M 62.5 23.4375 L 50 23.4375 C 49.265625 23.4375 48.902344 23.4375 48.609375 23.363281 C 47.804688 23.144531 47.167969 22.507812 46.949219 21.703125 C 46.875 21.410156 46.875 21.046875 46.875 20.3125 C 46.875 19.945312 46.875 19.773438 46.921875 19.628906 C 47.023438 19.214844 47.339844 18.898438 47.753906 18.796875 C 47.898438 18.75 48.070312 18.75 48.4375 18.75 L 64.0625 18.75 C 64.429688 18.75 64.601562 18.75 64.746094 18.796875 C 65.160156 18.898438 65.476562 19.214844 65.578125 19.628906 C 65.625 19.773438 65.625 19.945312 65.625 20.3125 C 65.625 21.046875 65.625 21.410156 65.550781 21.703125 C 65.332031 22.507812 64.695312 23.144531 63.890625 23.363281 C 63.597656 23.4375 63.234375 23.4375 62.5 23.4375 Z M 62.5 23.4375 " />
</g></g>
<g id="Phone_bcJKsFX-11"><clipPath id="clip1">
  <g id="Phone_bcJKsFX-7"><rect x="0" y="0" width="135" height="135" />
</g></clipPath>
</g><g id="surface265745" clip-path="url(#clip1)">
<g id="Phone_bcJKsFX-16"><use ns1:href="#surface265742" />
</g></g>
<g id="Phone_bcJKsFX-15"><mask id="mask0">
  <g filter="url(#alpha)">
<use ns1:href="#surface265745" transform="matrix(1.333333,0,0,1.333333,0,0)" />
  </g>
</mask>
</g><g id="Phone_bcJKsFX-12"><clipPath id="clip4">
  <g id="Phone_bcJKsFX-8"><rect x="0" y="0" width="150" height="150" />
</g></clipPath>
</g><g id="surface265744" clip-path="url(#clip4)">
<g id="Phone_bcJKsFX-3"><path style=" stroke:none;fill-rule:nonzero;fill:#33363f;fill-opacity:1;" d="M 62.605469 28.933594 L 50.53125 32.167969 Z M 64.816406 31.144531 L 61.582031 43.21875 Z M 87.394531 28.933594 L 75.320312 25.699219 Z M 85.183594 31.144531 L 88.417969 43.21875 Z M 87.445312 26.15625 L 99.519531 22.921875 Z M 86.34375 25.054688 L 83.105469 37.128906 Z M 62.554688 26.15625 L 74.628906 29.394531 Z M 63.65625 25.054688 L 66.894531 37.128906 Z M 66.667969 43.75 L 83.332031 43.75 L 83.332031 18.75 L 66.667969 18.75 Z M 85.417969 12.5 L 64.582031 12.5 L 64.582031 37.5 L 85.417969 37.5 Z M 50 27.082031 C 50 27.246094 49.894531 29.78125 50.53125 32.167969 L 74.679688 25.699219 C 74.960938 26.738281 74.996094 27.527344 75 27.652344 C 75.003906 27.726562 75.003906 27.734375 75 27.613281 C 75 27.492188 75 27.339844 75 27.082031 Z M 66.667969 18.75 C 66.410156 18.75 66.257812 18.75 66.136719 18.75 C 66.015625 18.746094 66.023438 18.746094 66.097656 18.75 C 66.222656 18.753906 67.011719 18.789062 68.050781 19.070312 L 61.582031 43.21875 C 63.96875 43.855469 66.503906 43.75 66.667969 43.75 Z M 50.53125 32.167969 C 51.976562 37.5625 56.1875 41.773438 61.582031 43.21875 L 68.050781 19.070312 C 71.285156 19.9375 73.8125 22.464844 74.679688 25.699219 Z M 75 27.082031 C 75 27.339844 75 27.492188 75 27.613281 C 74.996094 27.734375 74.996094 27.726562 75 27.652344 C 75.003906 27.527344 75.039062 26.738281 75.320312 25.699219 L 99.46875 32.167969 C 100.109375 29.78125 100 27.246094 100 27.082031 Z M 83.332031 43.75 C 83.496094 43.75 86.03125 43.855469 88.417969 43.21875 L 81.949219 19.070312 C 82.988281 18.789062 83.777344 18.753906 83.902344 18.75 C 83.976562 18.746094 83.984375 18.746094 83.863281 18.75 C 83.742188 18.75 83.589844 18.75 83.332031 18.75 Z M 75.320312 25.699219 C 76.1875 22.464844 78.714844 19.9375 81.949219 19.070312 L 88.417969 43.21875 C 93.8125 41.773438 98.023438 37.5625 99.46875 32.167969 Z M 100 27.082031 C 100 26.953125 100.003906 26.441406 99.980469 25.945312 C 99.953125 25.378906 99.878906 24.261719 99.519531 22.921875 L 75.371094 29.394531 C 75.066406 28.253906 75.019531 27.355469 75.007812 27.082031 C 75 26.9375 75 26.847656 75 26.875 C 75 26.898438 75 26.945312 75 27.082031 Z M 85.417969 37.5 C 85.554688 37.5 85.597656 37.5 85.625 37.5 C 85.652344 37.5 85.5625 37.5 85.417969 37.492188 C 85.144531 37.480469 84.246094 37.433594 83.105469 37.128906 L 89.578125 12.980469 C 88.238281 12.621094 87.121094 12.546875 86.554688 12.519531 C 86.058594 12.496094 85.546875 12.5 85.417969 12.5 Z M 99.519531 22.921875 C 98.21875 18.070312 94.429688 14.28125 89.578125 12.980469 L 83.105469 37.128906 C 79.332031 36.117188 76.382812 33.167969 75.371094 29.394531 Z M 75 27.082031 C 75 26.945312 75 26.898438 75 26.875 C 75 26.847656 75 26.9375 74.992188 27.082031 C 74.980469 27.355469 74.933594 28.253906 74.628906 29.394531 L 50.480469 22.921875 C 50.121094 24.261719 50.046875 25.378906 50.019531 25.945312 C 49.996094 26.441406 50 26.953125 50 27.082031 Z M 64.582031 12.5 C 64.453125 12.5 63.941406 12.496094 63.445312 12.519531 C 62.878906 12.546875 61.761719 12.621094 60.421875 12.980469 L 66.894531 37.128906 C 65.753906 37.433594 64.855469 37.480469 64.582031 37.492188 C 64.4375 37.5 64.347656 37.5 64.375 37.5 C 64.402344 37.5 64.445312 37.5 64.582031 37.5 Z M 74.628906 29.394531 C 73.617188 33.167969 70.667969 36.117188 66.894531 37.128906 L 60.421875 12.980469 C 55.570312 14.28125 51.78125 18.070312 50.480469 22.921875 Z M 74.628906 29.394531 " />
</g></g>
</defs>
<g id="Phone_bcJKsFX-combined"><g id="surface265734">
<g id="Phone_bcJKsFX-18"><use ns1:href="#surface265744" mask="url(#mask0)" />
</g><g id="Phone_bcJKsFX-4"><path style="fill:none;stroke-width:2;stroke-linecap:butt;stroke-linejoin:miter;stroke:rgb(20%,21.176471%,24.705882%);stroke-opacity:1;stroke-miterlimit:4;" d="M 8 3 L 16 3 C 17.104375 3 18 4.104375 18 5 L 18 19 C 18 20.104375 17.104375 21 16 21 L 8 21 C 6.895625 21 6 19.895625 6 19 L 6 5 C 6 3.895625 6.895625 3 8 3 Z M 8 3 " transform="matrix(6.25,0,0,6.25,0,0)" />
</g><g id="Phone_bcJKsFX-5"><path style=" stroke:none;fill-rule:nonzero;fill:#33363f;fill-opacity:1;" d="M 81.25 112.5 C 81.25 115.953125 78.453125 118.75 75 118.75 C 71.546875 118.75 68.75 115.953125 68.75 112.5 C 68.75 109.046875 71.546875 106.25 75 106.25 C 78.453125 106.25 81.25 109.046875 81.25 112.5 " />
</g></g>
</g></g></svg>