<svg xmlns="http://www.w3.org/2000/svg" width="18pt" height="18pt" viewBox="0 0 18 18" version="1.1" class="iconadda">
<g>
<g id="reports-0"><path style="fill:none;stroke-width:1.5;stroke-linecap:butt;stroke-linejoin:miter;stroke:rgb(0%,0%,0%);stroke-opacity:1;stroke-miterlimit:4;" d="M 9 21 L 15 21 M 9 21 L 9 16 M 9 21 L 3.598958 21 C 3.270833 21 3 20.729167 3 20.401042 L 3 16.598958 C 3 16.270833 3.270833 16 3.598958 16 L 9 16 M 15 21 L 15 9 M 15 21 L 20.401042 21 C 20.729167 21 21 20.729167 21 20.401042 L 21 3.598958 C 21 3.270833 20.729167 3 20.401042 3 L 15.598958 3 C 15.270833 3 15 3.270833 15 3.598958 L 15 9 M 15 9 L 9.598958 9 C 9.270833 9 9 9.270833 9 9.598958 L 9 16 " transform="matrix(0.75,0,0,0.75,0,0)" />
</g></g>
</svg>