<svg xmlns="http://www.w3.org/2000/svg" width="150pt" height="150pt" viewBox="0 0 150 150" version="1.1" class="iconadda">
<g>
<g id="Sale_Free_6-0"><path style=" stroke:none;fill-rule:nonzero;fill:#000001;fill-opacity:1;" d="M 127.984375 21.914062 C 114.4375 8.359375 95.667969 -0.00390625 75 0 C 54.363281 -0.00390625 35.597656 8.328125 22.066406 21.863281 C 8.476562 35.449219 -0.00390625 54.238281 0 74.996094 C -0.00390625 95.695312 8.398438 114.472656 21.96875 128.03125 C 35.527344 141.597656 54.304688 150 75.003906 149.996094 C 81.21875 149.996094 87.230469 149.191406 92.976562 147.773438 L 94.257812 147.457031 L 94.308594 147.402344 C 94.308594 147.402344 94.304688 147.40625 94.308594 147.40625 L 147.410156 94.304688 C 147.402344 94.304688 147.398438 94.304688 147.394531 94.304688 L 147.464844 94.238281 L 147.78125 92.960938 C 149.195312 87.226562 150 81.214844 150 75 C 150.003906 54.269531 141.5625 35.488281 127.984375 21.914062 Z M 139.773438 89.058594 C 139.476562 89.121094 139.085938 89.183594 138.609375 89.222656 C 137.746094 89.304688 136.636719 89.332031 135.371094 89.308594 L 135.296875 89.304688 L 135.339844 89.304688 C 131.460938 89.273438 125.871094 88.742188 119.566406 89.757812 L 119.574219 89.753906 C 113.222656 90.753906 106.125 93.617188 99.949219 99.8125 L 99.832031 99.929688 C 95.132812 104.625 92.292969 109.863281 90.8125 114.925781 C 88.59375 122.492188 89.1875 129.394531 89.285156 134.175781 L 89.289062 134.195312 C 89.367188 136.5625 89.304688 138.53125 89.109375 139.53125 C 89.089844 139.632812 89.074219 139.6875 89.054688 139.773438 C 84.503906 140.765625 79.820312 141.339844 75.003906 141.339844 C 56.667969 141.339844 40.109375 133.921875 28.089844 121.910156 C 16.074219 109.890625 8.660156 93.328125 8.65625 74.992188 C 8.660156 56.617188 16.136719 40.042969 28.191406 27.980469 C 40.171875 16.007812 56.714844 8.652344 75.007812 8.648438 C 93.320312 8.652344 109.871094 16.035156 121.871094 28.027344 C 133.902344 40.066406 141.351562 56.632812 141.355469 74.988281 C 141.347656 79.816406 140.769531 84.507812 139.773438 89.058594 Z M 139.773438 89.058594 " />
</g><g id="Sale_Free_6-1"><path style=" stroke:none;fill-rule:nonzero;fill:#000001;fill-opacity:1;" d="M 64.910156 64.933594 C 64.792969 64.730469 64.621094 64.613281 64.367188 64.664062 L 59.804688 65.5625 C 59.550781 65.609375 59.433594 65.78125 59.40625 66.015625 L 55.632812 91.582031 C 55.601562 91.8125 55.703125 91.945312 55.957031 91.894531 L 60.699219 90.964844 C 60.953125 90.914062 61.074219 90.777344 61.097656 90.507812 L 61.628906 85.929688 L 70.25 84.234375 L 72.507812 88.261719 C 72.628906 88.503906 72.796875 88.582031 73.050781 88.535156 L 77.757812 87.609375 C 78.011719 87.5625 78.054688 87.398438 77.9375 87.195312 Z M 62.21875 81.109375 L 63.3125 71.941406 L 63.421875 71.921875 L 67.90625 79.996094 Z M 62.21875 81.109375 " />
</g><g id="Sale_Free_6-2"><path style=" stroke:none;fill-rule:nonzero;fill:#000001;fill-opacity:1;" d="M 43.292969 79 L 41.957031 79.074219 C 39.050781 79.234375 37.859375 78.523438 37.582031 77.113281 C 37.277344 75.554688 38.175781 74.210938 40.351562 73.785156 C 42.378906 73.386719 44.316406 73.679688 46.445312 74.542969 C 46.644531 74.617188 46.820312 74.546875 46.925781 74.335938 L 48.488281 70.605469 C 48.621094 70.316406 48.554688 70.179688 48.308594 70.078125 C 45.933594 68.894531 42.695312 68.511719 39.4375 69.152344 C 34.113281 70.199219 31.300781 73.875 32.191406 78.402344 C 33.046875 82.75 36.296875 84.550781 41.429688 84.257812 L 42.769531 84.183594 C 45.777344 84.007812 46.824219 84.738281 47.113281 86.1875 C 47.453125 87.925781 46.238281 89.40625 43.667969 89.910156 C 41.0625 90.421875 38.609375 89.628906 36.722656 88.644531 C 36.515625 88.535156 36.296875 88.578125 36.1875 88.789062 L 34.054688 92.480469 C 33.914062 92.730469 34.039062 92.972656 34.210938 93.089844 C 36.492188 94.558594 40.523438 95.347656 44.359375 94.589844 C 50.734375 93.335938 53.382812 89.394531 52.507812 84.9375 C 51.632812 80.480469 48.496094 78.691406 43.292969 79 Z M 43.292969 79 " />
</g><g id="Sale_Free_6-3"><path style=" stroke:none;fill-rule:nonzero;fill:#000001;fill-opacity:1;" d="M 97.070312 78.882812 L 86.207031 81.019531 C 86.0625 81.046875 85.976562 80.988281 85.945312 80.84375 L 82.148438 61.542969 C 82.105469 61.324219 81.933594 61.207031 81.71875 61.25 L 77.117188 62.15625 C 76.898438 62.199219 76.78125 62.371094 76.824219 62.589844 L 81.523438 86.488281 C 81.566406 86.703125 81.742188 86.820312 81.957031 86.78125 L 98 83.625 C 98.21875 83.582031 98.332031 83.410156 98.292969 83.191406 L 97.503906 79.171875 C 97.460938 78.953125 97.289062 78.839844 97.070312 78.882812 Z M 97.070312 78.882812 " />
</g><g id="Sale_Free_6-4"><path style=" stroke:none;fill-rule:nonzero;fill:#000001;fill-opacity:1;" d="M 116.769531 75.15625 L 106.15625 77.242188 C 106.011719 77.273438 105.925781 77.214844 105.894531 77.070312 L 104.890625 71.960938 C 104.859375 71.816406 104.921875 71.730469 105.0625 71.699219 L 113.898438 69.960938 C 114.113281 69.917969 114.230469 69.746094 114.1875 69.527344 L 113.433594 65.6875 C 113.390625 65.472656 113.214844 65.355469 113 65.398438 L 104.164062 67.136719 C 104.019531 67.167969 103.933594 67.105469 103.902344 66.964844 L 102.941406 62.074219 C 102.914062 61.925781 102.972656 61.84375 103.117188 61.8125 L 113.730469 59.726562 C 113.945312 59.683594 114.0625 59.511719 114.019531 59.292969 L 113.257812 55.421875 C 113.214844 55.203125 113.039062 55.085938 112.824219 55.128906 L 97.035156 58.234375 C 96.816406 58.277344 96.703125 58.449219 96.746094 58.667969 L 101.445312 82.566406 C 101.488281 82.785156 101.660156 82.902344 101.878906 82.859375 L 117.667969 79.753906 C 117.882812 79.710938 118 79.535156 117.957031 79.320312 L 117.195312 75.445312 C 117.160156 75.230469 116.984375 75.113281 116.769531 75.15625 Z M 116.769531 75.15625 " />
</g></g>
</svg>