<svg xmlns="http://www.w3.org/2000/svg" width="150pt" height="150pt" viewBox="0 0 150 150" version="1.1" class="iconadda">
<g id="animate_0" transform="rotate(0,75,75) translate(22.500000000000004,22.500000000000004) scale(0.7,0.7)">
<g id="animate_1" style="transform-origin: 75px 75px;"><path style="stroke: none; fill-rule: evenodd; fill-opacity: 1;" d="M 60.496094 94.070312 L 60.496094 99.152344 L 28.335938 131.25 L 18.75 121.667969 L 50.847656 89.503906 L 55.929688 89.503906 L 57.730469 87.769531 C 51.425781 80.433594 47.628906 70.914062 47.628906 60.558594 C 47.628906 37.46875 66.347656 18.75 89.441406 18.75 C 112.53125 18.75 131.25 37.46875 131.25 60.558594 C 131.25 83.652344 112.53125 102.371094 89.441406 102.371094 C 79.085938 102.371094 69.566406 98.574219 62.230469 92.269531 Z M 89.441406 31.613281 C 73.425781 31.613281 60.496094 44.542969 60.496094 60.558594 C 60.496094 76.574219 73.425781 89.503906 89.441406 89.503906 C 105.457031 89.503906 118.386719 76.574219 118.386719 60.558594 C 118.386719 44.542969 105.457031 31.613281 89.441406 31.613281 Z M 89.441406 31.613281 " id="animate_2" data-original="#000001" fill="#000001"></path>
</g></g>
</svg>