<svg xmlns="http://www.w3.org/2000/svg" width="150pt" height="150pt" viewBox="0 0 150 150" version="1.1" class="iconadda">
<g>
<g id="Settings_S5jUiAW-0"><path style=" stroke:none;fill-rule:nonzero;fill:#0c0c0d;fill-opacity:1;" d="M 75 25 C 71.546875 25 68.75 27.796875 68.75 31.25 C 68.75 41.824219 55.960938 47.125 48.480469 39.644531 C 47.316406 38.4375 45.714844 37.75 44.039062 37.734375 C 42.363281 37.722656 40.75 38.382812 39.566406 39.566406 C 38.382812 40.75 37.722656 42.363281 37.734375 44.039062 C 37.75 45.714844 38.4375 47.316406 39.644531 48.480469 C 47.125 55.960938 41.832031 68.75 31.25 68.75 C 27.796875 68.75 25 71.546875 25 75 C 25 78.453125 27.796875 81.25 31.25 81.25 C 41.824219 81.25 47.125 94.039062 39.644531 101.519531 C 37.273438 103.972656 37.308594 107.871094 39.71875 110.28125 C 42.128906 112.691406 46.027344 112.726562 48.480469 110.355469 C 55.960938 102.875 68.75 108.167969 68.75 118.75 C 68.75 122.203125 71.546875 125 75 125 C 78.453125 125 81.25 122.203125 81.25 118.75 C 81.25 108.175781 94.039062 102.875 101.519531 110.355469 C 102.683594 111.5625 104.285156 112.25 105.960938 112.265625 C 107.636719 112.277344 109.25 111.617188 110.433594 110.433594 C 111.617188 109.25 112.277344 107.636719 112.265625 105.960938 C 112.25 104.285156 111.5625 102.683594 110.355469 101.519531 C 102.875 94.039062 108.167969 81.25 118.75 81.25 C 122.203125 81.25 125 78.453125 125 75 C 125 71.546875 122.203125 68.75 118.75 68.75 C 108.175781 68.75 102.875 55.960938 110.355469 48.480469 C 112.726562 46.027344 112.691406 42.128906 110.28125 39.71875 C 107.871094 37.308594 103.972656 37.273438 101.519531 39.644531 C 94.039062 47.125 81.25 41.832031 81.25 31.25 C 81.25 29.59375 80.589844 28.003906 79.417969 26.832031 C 78.246094 25.660156 76.65625 25 75 25 Z M 56.300781 29.855469 C 56.765625 23.5 60.425781 17.816406 66.023438 14.761719 C 71.617188 11.710938 78.382812 11.710938 83.976562 14.761719 C 89.574219 17.816406 93.234375 23.5 93.699219 29.855469 C 98.527344 25.710938 105.125 24.296875 111.226562 26.097656 C 117.328125 27.898438 122.097656 32.671875 123.898438 38.773438 C 125.699219 44.875 124.285156 51.476562 120.136719 56.300781 C 126.496094 56.765625 132.179688 60.425781 135.230469 66.019531 C 138.285156 71.617188 138.285156 78.378906 135.234375 83.972656 C 132.183594 89.570312 126.5 93.234375 120.144531 93.699219 C 124.289062 98.527344 125.703125 105.125 123.902344 111.226562 C 122.101562 117.328125 117.328125 122.097656 111.226562 123.898438 C 105.125 125.699219 98.523438 124.285156 93.699219 120.136719 C 93.234375 126.492188 89.574219 132.179688 83.976562 135.230469 C 78.382812 138.28125 71.617188 138.28125 66.023438 135.230469 C 60.425781 132.179688 56.765625 126.492188 56.300781 120.136719 C 51.476562 124.285156 44.875 125.699219 38.773438 123.898438 C 32.671875 122.097656 27.898438 117.328125 26.097656 111.226562 C 24.296875 105.125 25.710938 98.527344 29.855469 93.699219 C 23.5 93.234375 17.816406 89.574219 14.761719 83.976562 C 11.710938 78.382812 11.710938 71.617188 14.761719 66.023438 C 17.816406 60.425781 23.5 56.765625 29.855469 56.300781 C 25.699219 51.476562 24.273438 44.871094 26.074219 38.761719 C 27.875 32.652344 32.652344 27.875 38.761719 26.074219 C 44.871094 24.273438 51.476562 25.699219 56.300781 29.855469 Z M 56.300781 29.855469 " />
</g><g id="Settings_S5jUiAW-1"><path style=" stroke:none;fill-rule:nonzero;fill:#0c0c0d;fill-opacity:1;" d="M 75 62.5 C 68.097656 62.5 62.5 68.097656 62.5 75 C 62.5 81.902344 68.097656 87.5 75 87.5 C 81.902344 87.5 87.5 81.902344 87.5 75 C 87.5 68.097656 81.902344 62.5 75 62.5 Z M 57.324219 57.324219 C 61.984375 52.5 68.382812 49.753906 75.089844 49.695312 C 81.796875 49.636719 88.242188 52.273438 92.984375 57.015625 C 97.726562 61.757812 100.363281 68.203125 100.304688 74.910156 C 100.246094 81.617188 97.5 88.015625 92.675781 92.675781 C 86.324219 98.808594 77.210938 101.136719 68.695312 98.804688 C 60.183594 96.46875 53.53125 89.816406 51.195312 81.304688 C 48.863281 72.789062 51.191406 63.675781 57.324219 57.324219 Z M 57.324219 57.324219 " />
</g></g>
</svg>