<svg xmlns="http://www.w3.org/2000/svg" width="384pt" height="384pt" viewBox="0 0 384 384" version="1.1">
<g id="surface308902">
<g id="Shopping-Bag-free-icon_1-0"><g id="Shopping_Bag_free_icon_1_CRTQWMh-0"><path style=" stroke:none;fill-rule:nonzero;fill:rgb(0%,0%,0%);fill-opacity:1;" d="M 383.609375 341.523438 L 359.078125 115.199219 C 358.292969 107.832031 351.710938 101.328125 343.5625 101.328125 L 307.199219 101.328125 C 302.027344 44.589844 252.734375 0 192.390625 0 C 132.050781 0 82.835938 44.589844 76.957031 101.328125 L 40.4375 101.328125 C 32.289062 101.328125 25.703125 107.050781 24.921875 115.199219 L 0.390625 341.523438 C -0.394531 352.179688 2.820312 362.761719 10.1875 370.910156 C 17.554688 379.0625 28.210938 384 39.652344 384 L 345.207031 384 C 356.648438 384 367.226562 379.0625 373.8125 370.914062 C 381.179688 362.765625 384.390625 352.105469 383.609375 341.527344 Z M 192.394531 31.03125 C 234.949219 31.03125 270.449219 62.144531 275.152344 101.328125 L 109.636719 101.328125 C 114.339844 61.515625 149.839844 31.03125 192.394531 31.03125 Z M 345.210938 352.101562 L 39.652344 352.105469 C 34.089844 352.105469 32.285156 347.167969 32.285156 344.738281 L 55.167969 133.144531 L 76.40625 133.144531 L 76.40625 159.320312 C 76.40625 168.332031 83.773438 175.699219 92.785156 175.699219 C 101.796875 175.699219 109.164062 168.332031 109.164062 159.320312 L 109.164062 133.144531 L 275.851562 133.144531 L 275.851562 158.457031 C 275.851562 167.46875 283.21875 174.835938 292.230469 174.835938 C 300.378906 174.835938 307.746094 168.332031 307.746094 159.320312 L 307.746094 133.144531 L 329.765625 133.144531 L 352.648438 344.738281 C 352.570312 347.246094 350.769531 352.105469 345.203125 352.105469 Z M 345.210938 352.101562 " />
</g></g><g id="Shopping-Bag-free-icon_1-1"><g id="Shopping_Bag_free_icon_1_CRTQWMh-1"><path style=" stroke:none;fill-rule:nonzero;fill:rgb(0%,0%,0%);fill-opacity:1;" d="M 233.925781 172.566406 C 226.324219 169.589844 218.410156 168.097656 210.257812 168.097656 C 181.261719 168.097656 156.339844 187.375 145.996094 214.570312 L 128.285156 214.570312 C 122.5625 214.570312 117.863281 219.195312 117.863281 224.992188 C 117.863281 230.792969 122.488281 235.414062 128.285156 235.414062 L 141.136719 235.414062 C 140.902344 237.921875 140.902344 248.109375 141.136719 250.617188 L 128.285156 250.617188 C 122.5625 250.617188 117.863281 255.242188 117.863281 261.039062 C 117.863281 266.761719 122.488281 271.460938 128.285156 271.460938 L 145.996094 271.460938 C 156.417969 298.734375 181.261719 317.933594 210.257812 317.933594 C 216.917969 317.933594 223.421875 316.914062 229.769531 314.957031 C 235.253906 313.234375 238.3125 307.355469 236.585938 301.871094 C 234.863281 296.386719 228.984375 293.328125 223.5 295.054688 C 219.191406 296.386719 214.722656 297.09375 210.257812 297.09375 C 192.78125 297.09375 177.421875 286.828125 168.878906 271.390625 L 213 271.390625 C 218.722656 271.390625 223.421875 266.765625 223.421875 260.96875 C 223.421875 255.246094 218.796875 250.546875 213 250.546875 L 162.140625 250.546875 C 161.828125 248.039062 161.828125 237.851562 162.140625 235.34375 L 213 235.34375 C 218.722656 235.34375 223.421875 230.71875 223.421875 224.921875 C 223.421875 219.121094 218.796875 214.5 213 214.5 L 168.878906 214.5 C 177.5 199.0625 192.78125 188.796875 210.257812 188.796875 C 215.742188 188.796875 221.230469 189.816406 226.324219 191.851562 C 231.652344 193.96875 237.6875 191.304688 239.804688 185.972656 C 241.921875 180.644531 239.257812 174.609375 233.925781 172.570312 Z M 233.925781 172.566406 " />
</g></g></g>
</svg>