<svg xmlns="http://www.w3.org/2000/svg" width="384pt" height="384pt" viewBox="0 0 384 384" version="1.1" class="iconadda">
<g id="animate_0" transform="rotate(0,192,192) translate(0,0) scale(1.0,1.0)">
<g id="animate_1" style="transform-origin: 191.998px 192.018px;"><path style="stroke-width: 15.118; stroke-linecap: round; stroke-linejoin: round; stroke-opacity: 1; stroke-miterlimit: 10;" d="M -0.0000931606 -0.00200098 C 42.130241 -20.455187 77.083471 -50.85632 97.916866 -91.236649 C 105.385638 -105.695025 105.151263 -106.856487 97.916866 -121.465906 C 45.703168 -227.273513 -108.755626 -264.544458 -233.052873 -233.382907 M -240.375811 18.758472 C -181.943345 35.164771 -116.281691 35.805398 -57.239848 20.763686 M -290.558253 -212.846387 C -333.094839 -192.424451 -368.079318 -161.992068 -388.068961 -121.465906 C -395.277316 -106.861695 -395.537733 -105.700234 -388.068961 -91.236649 C -364.912642 -46.37714 -324.292729 -13.793709 -275.829042 6.482393 " transform="matrix(0.749998,0,0,-0.749998,300.800851,112.350062)" id="animate_2" stroke="#ffffff" data-original="#000000" fill="none" stroke-width="15.118px" class=""></path>
</g><g id="animate_3" style="transform-origin: 192px 192.011px;"><path style="stroke-width: 15.118; stroke-linecap: round; stroke-linejoin: round; stroke-opacity: 1; stroke-miterlimit: 10;" d="M -0.00144616 0.00172914 C 3.014188 -5.706621 5.430862 -11.711848 7.206909 -17.920199 C 21.472576 -67.670348 -7.235843 -119.540295 -56.892241 -133.826796 C -81.095438 -140.779942 -105.819471 -137.519515 -126.423699 -126.581982 M -165.444649 -87.571449 L -165.439441 -87.566241 C -168.434241 -81.847474 -170.850915 -75.847456 -172.647795 -69.649521 C -186.882213 -19.899372 -158.210252 31.970575 -108.522604 46.257076 C -84.319406 53.210221 -59.621416 49.949795 -38.991146 39.043512 " transform="matrix(0.749998,0,0,-0.749998,254.036241,159.173172)" id="animate_4" stroke="#ffffff" data-original="#000000" fill="none" stroke-width="15.118px" class=""></path>
</g><g id="animate_5" style="transform-origin: 192.005px 192px;"><path style="stroke-width: 15.118; stroke-linecap: round; stroke-linejoin: round; stroke-opacity: 1; stroke-miterlimit: 10;" d="M -0.000995547 0.000912648 L -145.803515 -146.015149 C -156.522297 -156.749556 -156.522297 -174.291275 -145.803515 -185.025682 C -135.079524 -195.760089 -117.532597 -195.760089 -106.808606 -185.025682 L 208.645461 130.829429 C 219.369452 141.563836 219.369452 159.136805 208.645461 169.871212 C 197.926679 180.605619 180.374543 180.605619 169.655761 169.871212 L 23.827201 23.855151 " transform="matrix(0.749998,0,0,-0.749998,168.438247,186.317091)" id="animate_6" stroke="#ffffff" data-original="#000000" fill="none" stroke-width="15.118px" class=""></path>
</g></g>
</svg>