<svg xmlns="http://www.w3.org/2000/svg" width="150pt" height="150pt" viewBox="0 0 150 150" version="1.1" class="iconadda">
<g>
<g id="Sort_tOjwPKt-0"><path style=" stroke:none;fill-rule:evenodd;fill:#000001;fill-opacity:1;" d="M 12.5 43.75 C 12.5 40.296875 15.296875 37.5 18.75 37.5 L 131.25 37.5 C 134.703125 37.5 137.5 40.296875 137.5 43.75 C 137.5 47.203125 134.703125 50 131.25 50 L 18.75 50 C 15.296875 50 12.5 47.203125 12.5 43.75 Z M 12.5 75 C 12.5 71.546875 15.296875 68.75 18.75 68.75 L 106.25 68.75 C 109.703125 68.75 112.5 71.546875 112.5 75 C 112.5 78.453125 109.703125 81.25 106.25 81.25 L 18.75 81.25 C 15.296875 81.25 12.5 78.453125 12.5 75 Z M 18.75 100 C 15.296875 100 12.5 102.796875 12.5 106.25 C 12.5 109.703125 15.296875 112.5 18.75 112.5 L 81.25 112.5 C 84.703125 112.5 87.5 109.703125 87.5 106.25 C 87.5 102.796875 84.703125 100 81.25 100 Z M 18.75 100 " />
</g></g>
</svg>