<svg width="24" height="24" viewBox="0 0 24 24" fill="none" xmlns="http://www.w3.org/2000/svg">
<path d="M21.0006 6.73144C20.9806 6.73144 20.9506 6.73144 20.9206 6.73144C15.6306 6.20144 10.3506 6.00144 5.12065 6.53144L3.08065 6.73144C2.66065 6.77144 2.29065 6.47144 2.25065 6.05144C2.21065 5.63144 2.51065 5.27144 2.92065 5.23144L4.96065 5.03144C10.2806 4.49144 15.6706 4.70144 21.0706 5.23144C21.4806 5.27144 21.7806 5.64144 21.7406 6.05144C21.7106 6.44144 21.3806 6.73144 21.0006 6.73144Z" fill="#191919"/>
<path d="M8.49977 5.71902C8.45977 5.71902 8.41977 5.71902 8.36977 5.70902C7.96977 5.63902 7.68977 5.24902 7.75977 4.84902L7.97977 3.53902C8.13977 2.57902 8.35977 1.24902 10.6898 1.24902H13.3098C15.6498 1.24902 15.8698 2.62902 16.0198 3.54902L16.2398 4.84902C16.3098 5.25902 16.0298 5.64902 15.6298 5.70902C15.2198 5.77902 14.8298 5.49902 14.7698 5.09902L14.5498 3.79902C14.4098 2.92902 14.3798 2.75902 13.3198 2.75902H10.6998C9.63977 2.75902 9.61977 2.89902 9.46977 3.78902L9.23977 5.08902C9.17977 5.45902 8.85977 5.71902 8.49977 5.71902Z" fill="#191919"/>
<path d="M15.2465 19.815H8.82652C5.33652 19.815 5.19652 17.885 5.08652 16.325L4.43652 6.25502C4.40652 5.84502 4.72652 5.48502 5.13652 5.45502C5.55652 5.43502 5.90652 5.74502 5.93652 6.15502L6.58652 16.225C6.69652 17.745 6.73652 18.315 8.82652 18.315H15.2465C17.3465 18.315 17.3865 17.745 17.4865 16.225L18.1365 6.15502C18.1665 5.74502 18.5265 5.43502 18.9365 5.45502C19.3465 5.48502 19.6665 5.83502 19.6365 6.25502L18.9865 16.325C18.8765 17.885 18.7365 19.815 15.2465 19.815Z" fill="#191919"/>
<path d="M13.6591 16.249H10.3291C9.9191 16.249 9.5791 15.909 9.5791 15.499C9.5791 15.089 9.9191 14.749 10.3291 14.749H13.6591C14.0691 14.749 14.4091 15.089 14.4091 15.499C14.4091 15.909 14.0691 16.249 13.6591 16.249Z" fill="#191919"/>
<path d="M14.5 12.251H9.5C9.09 12.251 8.75 11.911 8.75 11.501C8.75 11.091 9.09 10.751 9.5 10.751H14.5C14.91 10.751 15.25 11.091 15.25 11.501C15.25 11.911 14.91 12.251 14.5 12.251Z" fill="#191919"/>
</svg>
