<svg xmlns="http://www.w3.org/2000/svg" width="384pt" height="384pt" viewBox="0 0 384 384" version="1.1" class="iconadda">
<g>
<g id="Truck_free_icon_Alyzgvi-0"><path style=" stroke:none;fill-rule:nonzero;fill:#000001;fill-opacity:1;" d="M 339 315.75 C 339 328.175781 328.925781 338.25 316.5 338.25 C 304.074219 338.25 294 328.175781 294 315.75 C 294 303.324219 304.074219 293.25 316.5 293.25 C 328.925781 293.25 339 303.324219 339 315.75 " />
</g><g id="Truck_free_icon_Alyzgvi-1"><path style=" stroke:none;fill-rule:nonzero;fill:#000001;fill-opacity:1;" d="M 289.035156 113.25 L 249 113.25 L 249 180.75 L 331.109375 180.75 L 321.050781 136.320312 L 321.046875 136.320312 C 318.8125 129.601562 314.515625 123.753906 308.769531 119.613281 C 303.023438 115.46875 296.117188 113.242188 289.035156 113.25 Z M 361.5 270.75 C 355.28125 270.75 350.25 265.71875 350.25 259.5 C 350.25 253.28125 355.28125 248.25 361.5 248.25 L 383.628906 248.25 C 382.695312 236.492188 376.027344 226.066406 365.34375 220.71875 L 336.203125 203.25 L 249 203.25 L 249 315.75 L 271.5 315.75 C 271.5 290.933594 291.683594 270.75 316.5 270.75 C 341.316406 270.75 361.5 290.933594 361.5 315.75 L 372.75 315.75 C 378.96875 315.75 384 310.71875 384 304.5 L 384 270.75 Z M 361.5 270.75 " />
</g><g id="Truck_free_icon_Alyzgvi-2"><path style=" stroke:none;fill-rule:nonzero;fill:#000001;fill-opacity:1;" d="M 102 315.75 C 102 328.175781 91.925781 338.25 79.5 338.25 C 67.074219 338.25 57 328.175781 57 315.75 C 57 303.324219 67.074219 293.25 79.5 293.25 C 91.925781 293.25 102 303.324219 102 315.75 " />
</g><g id="Truck_free_icon_Alyzgvi-3"><path style=" stroke:none;fill-rule:nonzero;fill:#000001;fill-opacity:1;" d="M 100.957031 160.65625 L 99.296875 170.378906 L 108.019531 165.796875 C 109.65625 164.929688 111.445312 164.5 113.25 164.5 C 115.050781 164.5 116.84375 164.929688 118.480469 165.796875 L 127.203125 170.378906 L 125.542969 160.65625 C 124.917969 157.007812 126.125 153.285156 128.773438 150.703125 L 135.828125 143.824219 L 126.082031 142.40625 C 122.417969 141.878906 119.25 139.578125 117.613281 136.253906 L 113.25 127.421875 L 108.890625 136.253906 C 107.253906 139.578125 104.082031 141.878906 100.417969 142.40625 L 90.671875 143.824219 L 97.726562 150.703125 C 100.375 153.285156 101.582031 157.007812 100.957031 160.65625 Z M 100.957031 160.65625 " />
</g><g id="Truck_free_icon_Alyzgvi-4"><path style=" stroke:none;fill-rule:nonzero;fill:#000001;fill-opacity:1;" d="M 11.25 315.75 L 34.5 315.75 C 34.5 290.933594 54.683594 270.75 79.5 270.75 C 104.316406 270.75 124.5 290.933594 124.5 315.75 L 226.5 315.75 L 226.5 57 C 226.5 50.785156 221.464844 45.75 215.25 45.75 L 11.25 45.75 C 5.035156 45.75 0 50.785156 0 57 L 0 248.25 L 23.25 248.25 C 29.46875 248.25 34.5 253.28125 34.5 259.5 C 34.5 265.71875 29.46875 270.75 23.25 270.75 L 0 270.75 L 0 304.5 C 0 310.714844 5.035156 315.75 11.25 315.75 Z M 158.25 248.25 L 68.25 248.25 C 62.03125 248.25 57 243.21875 57 237 C 57 230.78125 62.03125 225.75 68.25 225.75 L 158.25 225.75 C 164.46875 225.75 169.5 230.78125 169.5 237 C 169.5 243.21875 164.46875 248.25 158.25 248.25 Z M 55.792969 132.496094 C 57.117188 128.425781 60.636719 125.457031 64.878906 124.839844 L 91.332031 120.996094 L 103.164062 97.023438 C 106.941406 89.332031 119.554688 89.332031 123.335938 97.023438 L 135.167969 120.996094 L 161.621094 124.839844 C 165.859375 125.457031 169.382812 128.425781 170.707031 132.496094 C 172.027344 136.566406 170.925781 141.035156 167.863281 144.023438 L 148.714844 162.6875 L 153.230469 189.03125 L 153.230469 189.035156 C 153.953125 193.25 152.21875 197.515625 148.757812 200.03125 C 145.296875 202.554688 140.703125 202.886719 136.914062 200.886719 L 113.25 188.460938 L 89.585938 200.886719 C 85.828125 202.90625 81.214844 202.566406 77.742188 200.03125 C 74.28125 197.515625 72.546875 193.25 73.269531 189.03125 L 77.785156 162.6875 L 58.636719 144.023438 C 55.574219 141.035156 54.472656 136.566406 55.792969 132.496094 Z M 55.792969 132.496094 " />
</g></g>
</svg>