<svg width="25" height="24" viewBox="0 0 25 24" fill="none" xmlns="http://www.w3.org/2000/svg">
<path d="M3.5 9.8541C3.5 8.83011 4.33011 8 5.3541 8V8C6.05638 8 6.69839 7.60322 7.01246 6.97508L7.94721 5.10557C8.21617 4.56766 8.35065 4.2987 8.5923 4.14935C8.83395 4 9.13466 4 9.73607 4H15.2639C15.8653 4 16.166 4 16.4077 4.14935C16.6493 4.2987 16.7838 4.56766 17.0528 5.10557L17.9875 6.97508C18.3016 7.60322 18.9436 8 19.6459 8V8C20.6699 8 21.5 8.83011 21.5 9.8541V17C21.5 18.4142 21.5 19.1213 21.0607 19.5607C20.6213 20 19.9142 20 18.5 20H6.5C5.08579 20 4.37868 20 3.93934 19.5607C3.5 19.1213 3.5 18.4142 3.5 17V9.8541Z" stroke="#1560BD" stroke-width="1.5"/>
<circle cx="12.5" cy="13" r="3.25" stroke="#1560BD" stroke-width="1.5"/>
</svg>
