<svg xmlns="http://www.w3.org/2000/svg" width="384pt" height="384pt" viewBox="0 0 384 384" version="1.1">
<g id="surface545803">
<g id="Visa-free-icon-0"><g id="Visa_free_icon_Zf0GKGT-0"><path style=" stroke:none;fill-rule:nonzero;fill:rgb(13.72549%,58.039216%,73.72549%);fill-opacity:1;" d="M 156.960938 131.914062 L 137.6875 251.84375 L 168.492188 251.84375 L 187.753906 131.914062 Z M 249.878906 180.765625 C 239.113281 175.449219 232.515625 171.863281 232.515625 166.425781 C 232.648438 161.480469 238.097656 156.417969 250.261719 156.417969 C 260.269531 156.167969 267.625 158.519531 273.207031 160.859375 L 276.003906 162.105469 L 280.191406 137.011719 C 274.105469 134.660156 264.460938 132.066406 252.542969 132.066406 C 222.125 132.066406 200.703125 147.882812 200.570312 170.503906 C 200.320312 187.195312 215.90625 196.460938 227.570312 202.015625 C 239.488281 207.714844 243.542969 211.410156 243.542969 216.476562 C 243.410156 224.253906 233.90625 227.839844 225.039062 227.839844 C 212.75 227.839844 206.152344 225.992188 196.132812 221.660156 L 192.078125 219.8125 L 187.769531 245.890625 C 195.003906 249.105469 208.3125 251.9375 222.125 252.082031 C 254.453125 252.082031 275.488281 236.503906 275.753906 212.398438 C 275.859375 199.175781 267.640625 189.046875 249.878906 180.765625 Z M 359.164062 132.285156 L 335.332031 132.285156 C 327.988281 132.285156 322.40625 134.398438 319.226562 141.933594 L 273.46875 251.84375 L 305.796875 251.84375 L 314.699219 228.046875 L 350.867188 228.046875 L 355.488281 251.9375 L 384 251.9375 L 359.160156 132.285156 Z M 323.667969 204.03125 C 324.292969 204.089844 336.078125 165.1875 336.078125 165.1875 L 345.460938 204.03125 Z M 111.949219 131.914062 L 81.769531 213.394531 L 78.480469 197.324219 C 72.898438 178.785156 55.40625 158.636719 35.878906 148.628906 L 63.515625 251.722656 L 96.109375 251.722656 L 144.542969 131.925781 L 111.949219 131.929688 Z M 111.949219 131.914062 " />
</g></g><g id="Visa-free-icon-1"><g id="Visa_free_icon_Zf0GKGT-1"><path style=" stroke:none;fill-rule:nonzero;fill:rgb(93.72549%,78.039216%,36.862745%);fill-opacity:1;" d="M 68.328125 147.382812 C 65.976562 138.238281 58.476562 132.070312 48.289062 131.9375 L 0.492188 131.941406 L 0 134.160156 C 37.285156 143.351562 68.578125 171.636719 78.730469 198.238281 Z M 68.328125 147.382812 " />
</g></g></g>
</svg>